<svg width="32" height="32" viewBox="0 0 32 32" fill="none" xmlns="http://www.w3.org/2000/svg">
<g id="Clock">
<g id="Clock_2">
<path id="Vector" d="M16 2C13.2311 2 10.5243 2.82109 8.22202 4.35943C5.91973 5.89777 4.12532 8.08427 3.06569 10.6424C2.00607 13.2006 1.72882 16.0155 2.26901 18.7313C2.80921 21.447 4.14258 23.9416 6.10051 25.8995C8.05845 27.8574 10.553 29.1908 13.2687 29.731C15.9845 30.2712 18.7994 29.9939 21.3576 28.9343C23.9157 27.8747 26.1022 26.0803 27.6406 23.778C29.1789 21.4757 30 18.7689 30 16C30 12.287 28.525 8.72601 25.8995 6.1005C23.274 3.475 19.713 2 16 2ZM17 28V27C17 26.7348 16.8947 26.4804 16.7071 26.2929C16.5196 26.1054 16.2652 26 16 26C15.7348 26 15.4804 26.1054 15.2929 26.2929C15.1054 26.4804 15 26.7348 15 27V28C12.1677 27.7603 9.51247 26.5231 7.50718 24.5087C5.50188 22.4942 4.27675 19.8333 4.05001 17H5.00001C5.26522 17 5.51958 16.8946 5.70711 16.7071C5.89465 16.5196 6.00001 16.2652 6.00001 16C6.00001 15.7348 5.89465 15.4804 5.70711 15.2929C5.51958 15.1054 5.26522 15 5.00001 15H4.00001C4.23966 12.1677 5.47689 9.51247 7.49135 7.50717C9.5058 5.50187 12.1667 4.27675 15 4.05V5C15 5.26522 15.1054 5.51957 15.2929 5.70711C15.4804 5.89464 15.7348 6 16 6C16.2652 6 16.5196 5.89464 16.7071 5.70711C16.8947 5.51957 17 5.26522 17 5V4C19.8412 4.22837 22.5084 5.46063 24.5239 7.47614C26.5394 9.49166 27.7716 12.1588 28 15H27C26.7348 15 26.4804 15.1054 26.2929 15.2929C26.1054 15.4804 26 15.7348 26 16C26 16.2652 26.1054 16.5196 26.2929 16.7071C26.4804 16.8946 26.7348 17 27 17H28C27.7716 19.8412 26.5394 22.5083 24.5239 24.5239C22.5084 26.5394 19.8412 27.7716 17 28Z" fill="#3A54DD"/>
<path id="Vector_2" d="M21.24 8.35001L15.54 15H11C10.7348 15 10.4804 15.1054 10.2929 15.2929C10.1054 15.4804 10 15.7348 10 16C10 16.2652 10.1054 16.5196 10.2929 16.7071C10.4804 16.8947 10.7348 17 11 17H16C16.1385 17.0012 16.2754 16.9704 16.4 16.91L16.48 16.86C16.5736 16.8115 16.6582 16.7472 16.73 16.67L22.73 9.67001C22.8154 9.5702 22.8802 9.45456 22.9209 9.32969C22.9616 9.20482 22.9772 9.07316 22.967 8.94223C22.9568 8.8113 22.9209 8.68366 22.8614 8.5666C22.8018 8.44955 22.7198 8.34537 22.62 8.26001C22.5202 8.17465 22.4046 8.10978 22.2797 8.06912C22.1548 8.02845 22.0231 8.01277 21.8922 8.02299C21.7613 8.0332 21.6337 8.06911 21.5166 8.12865C21.3995 8.18819 21.2954 8.2702 21.21 8.37001L21.24 8.35001Z" fill="#3A54DD"/>
</g>
</g>
</svg>
