<svg width="668" height="479" viewBox="0 0 668 479" fill="none" xmlns="http://www.w3.org/2000/svg">
<path d="M182.043 398.779C140.692 401.114 99.1102 407.332 59.6168 421.772C48.1853 425.95 36.9078 430.665 25.7841 435.873C20.8818 438.165 -0.48618 444.875 0.00844938 453.362C0.711922 465.335 372.904 449.645 373.124 457.353C373.344 465.061 356.241 465.61 355.944 471.662C355.647 477.715 466.389 484.59 540.781 471.662C615.174 458.735 649.435 439.546 640.312 430.116C634.53 424.141 626.33 421.334 619.098 418.943C607.04 414.952 594.608 412.529 582.22 410.467C546.838 404.579 511.038 402.134 475.369 400.27C432.776 398.044 390.128 397.156 347.491 396.849C305.503 396.553 263.525 397.299 221.558 397.606C208.456 397.704 195.266 398.044 182.043 398.79V398.779Z" fill="#F4F4F4"/>
<path d="M142.638 264.742C142.638 264.742 12.5399 234.732 6.31856 144.755C1.04251 68.4724 61.0686 4.19662 203.885 10.4575C241.773 12.1242 277.233 23.9442 314.539 28.8674C358.418 34.6568 399.274 20.1943 441.175 8.65928C487.098 -3.98315 534.033 -3.17175 578.979 13.6702C609.547 25.1284 646.303 45.2379 661.285 77.5951C662.56 80.3363 663.648 83.1651 664.451 86.1147C679.828 142.88 645.534 265.115 460.828 279.534C276.123 293.953 142.649 264.742 142.649 264.742H142.638Z" fill="#F4F4F4"/>
<path d="M434.117 406.948C445.637 400.797 459.365 400.413 471.401 405.501C477.524 408.089 481.47 411.093 475.238 413.374C461.608 418.374 422.323 416.324 429.27 410.172C430.578 409.021 432.249 407.935 434.106 406.948H434.117Z" fill="#E0E0E0"/>
<path d="M457.42 412.101C457.42 412.101 458.574 384.942 473.138 367.343C487.713 349.744 506.124 324.876 491.549 320.666C476.974 316.455 458.563 337.113 452.045 358.922C445.527 380.731 453.067 412.101 453.067 412.101H457.409H457.42Z" fill="#307DEF"/>
<path d="M454.991 412.485C455.199 412.485 455.375 412.31 455.375 412.102C455.375 412.025 455.419 404.667 456.431 395.106C457.365 386.29 459.321 373.747 463.399 364.043C471.203 345.458 480.865 335.534 480.964 335.436C481.118 335.282 481.107 335.041 480.964 334.898C480.81 334.745 480.568 334.756 480.426 334.898C480.327 334.997 470.566 345.03 462.707 363.747C458.596 373.538 456.617 386.17 455.683 395.029C454.672 404.624 454.628 412.014 454.628 412.091C454.628 412.299 454.793 412.474 455.013 412.474L454.991 412.485Z" fill="#F4F4F4"/>
<path d="M448.022 412.102C448.022 412.102 447.098 390.205 435.348 376.016C423.598 361.828 408.759 341.784 420.509 338.385C432.259 334.986 447.098 351.642 452.353 369.229C457.607 386.806 451.528 412.102 451.528 412.102H448.022Z" fill="#1E56C6"/>
<path d="M449.978 412.485C450.187 412.485 450.363 412.31 450.363 412.102C450.363 412.047 450.33 406.082 449.506 398.341C448.747 391.192 447.154 381.005 443.834 373.1C437.492 357.99 429.611 349.898 429.534 349.822C429.391 349.668 429.138 349.668 428.995 349.822C428.841 349.975 428.841 350.216 428.995 350.359C429.072 350.436 436.854 358.44 443.142 373.396C446.428 381.214 448.011 391.323 448.758 398.429C449.572 406.137 449.605 412.058 449.605 412.113C449.605 412.321 449.781 412.496 449.989 412.496L449.978 412.485Z" fill="#F4F4F4"/>
<path d="M447.055 464.448C439.877 460.61 431.325 460.38 423.829 463.549C420.015 465.161 417.564 467.036 421.433 468.45C429.918 471.564 454.397 470.281 450.066 466.455C449.253 465.742 448.209 465.062 447.055 464.448Z" fill="#E0E0E0"/>
<path d="M432.534 467.66C432.534 467.66 431.82 450.741 422.741 439.777C413.661 428.812 402.197 413.329 411.276 410.698C420.355 408.077 431.82 420.95 435.887 434.525C439.943 448.11 435.249 467.649 435.249 467.649H432.545L432.534 467.66Z" fill="#FFBB56"/>
<path d="M434.051 467.901C433.919 467.901 433.809 467.792 433.809 467.66C433.809 467.616 433.787 463.033 433.15 457.079C432.567 451.586 431.347 443.779 428.808 437.726C423.95 426.147 417.926 419.963 417.871 419.908C417.783 419.81 417.783 419.667 417.871 419.568C417.97 419.481 418.113 419.481 418.212 419.568C418.278 419.634 424.357 425.873 429.248 437.54C431.809 443.636 433.04 451.509 433.623 457.024C434.249 463 434.282 467.605 434.282 467.649C434.282 467.781 434.172 467.89 434.04 467.89L434.051 467.901Z" fill="#F4F4F4"/>
<path d="M438.404 467.66C438.404 467.66 438.987 454.02 446.296 445.182C453.617 436.345 462.861 423.856 455.54 421.739C448.22 419.623 438.976 429.996 435.7 440.95C432.425 451.904 436.217 467.649 436.217 467.649H438.404V467.66Z" fill="#F48919"/>
<path d="M437.184 467.901C437.052 467.901 436.942 467.792 436.942 467.66C436.942 467.627 436.964 463.91 437.47 459.086C437.942 454.634 438.932 448.285 440.998 443.362C444.955 433.954 449.858 428.91 449.912 428.856C450 428.757 450.154 428.757 450.253 428.856C450.352 428.943 450.352 429.097 450.253 429.195C450.209 429.239 445.362 434.228 441.449 443.549C439.404 448.417 438.415 454.711 437.953 459.14C437.448 463.943 437.426 467.627 437.426 467.671C437.426 467.803 437.316 467.912 437.184 467.912V467.901Z" fill="#F4F4F4"/>
<path d="M220.481 405.26C213.304 401.422 204.752 401.192 197.256 404.361C193.441 405.973 190.99 407.848 194.859 409.262C203.345 412.376 227.824 411.093 223.493 407.266C222.68 406.554 221.635 405.874 220.481 405.26Z" fill="#E0E0E0"/>
<path d="M205.972 408.472C205.972 408.472 205.258 391.553 196.178 380.588C187.099 369.624 175.635 354.141 184.714 351.521C193.793 348.9 205.258 361.773 209.325 375.347C213.38 388.933 208.687 408.472 208.687 408.472H205.983H205.972Z" fill="#3079F2"/>
<path d="M207.478 408.713C207.346 408.713 207.236 408.604 207.236 408.472C207.236 408.428 207.214 403.845 206.577 397.891C205.994 392.398 204.774 384.591 202.235 378.538C197.377 366.959 191.353 360.775 191.298 360.72C191.21 360.622 191.21 360.479 191.298 360.38C191.397 360.293 191.54 360.293 191.639 360.38C191.705 360.446 197.783 366.685 202.675 378.352C205.236 384.448 206.467 392.321 207.049 397.836C207.676 403.812 207.709 408.417 207.709 408.461C207.709 408.593 207.599 408.702 207.467 408.702L207.478 408.713Z" fill="#F4F4F4"/>
<path d="M211.831 408.472C211.831 408.472 212.413 394.832 219.723 385.994C227.044 377.157 236.287 364.668 228.967 362.552C221.646 360.435 212.402 370.808 209.127 381.762C205.851 392.716 209.643 408.461 209.643 408.461H211.831V408.472Z" fill="#B5D2F7"/>
<path d="M210.611 408.713C210.479 408.713 210.369 408.604 210.369 408.472C210.369 408.439 210.391 404.722 210.896 399.898C211.369 395.446 212.358 389.097 214.425 384.174C218.382 374.766 223.284 369.723 223.339 369.668C223.427 369.569 223.581 369.569 223.68 369.668C223.779 369.755 223.779 369.909 223.68 370.008C223.636 370.051 218.789 375.041 214.875 384.361C212.831 389.229 211.842 395.523 211.38 399.953C210.874 404.755 210.852 408.439 210.852 408.483C210.852 408.615 210.743 408.724 210.611 408.724V408.713Z" fill="#F4F4F4"/>
<path d="M99.4179 428.318C99.4179 428.318 56.1324 444.975 65.2995 445.852C74.4667 446.718 121.863 445.852 121.863 445.852C121.863 445.852 122.632 441.236 122.336 436.575C122.039 431.915 118.489 428.9 118.489 428.9L99.4289 428.318H99.4179Z" fill="#3079F2"/>
<path d="M160.224 428.318C160.224 428.318 203.51 444.975 194.343 445.852C185.176 446.718 137.779 445.852 137.779 445.852C137.779 445.852 137.01 441.236 137.306 436.575C137.603 431.915 141.154 428.9 141.154 428.9L160.213 428.318H160.224Z" fill="#3079F2"/>
<path d="M99.418 422.025V428.319C99.418 428.319 102.946 430.348 109.344 430.413C115.741 430.468 118.478 428.9 118.478 428.9V422.102L106.837 419.612L99.418 422.036V422.025Z" fill="#6780FF"/>
<path d="M160.224 421.652V428.319C160.224 428.319 156.696 430.348 150.299 430.413C143.902 430.468 141.165 428.9 141.165 428.9V421.806L152.805 419.612L160.224 421.652Z" fill="#6780FF"/>
<path d="M163.742 419.031C163.742 419.031 160.686 423.297 151.959 423.384C143.231 423.472 136.944 420.161 136.944 420.161L123.182 296.445L122.105 286.73C122.072 286.39 121.566 286.423 121.577 286.763L121.786 296.445L124.413 419.963C124.413 419.963 121.5 422.288 110.904 423.22C100.319 424.141 94.6146 419.733 94.6146 419.733L80.8969 245.601L156.872 246.237L163.742 419.031Z" fill="#090A89"/>
<path d="M157.191 239.844V244.395C157.191 246.138 156.377 247.772 154.981 248.803C150.365 252.224 138.516 259.318 119.016 259.757C99.1981 260.206 85.6013 249.822 80.8968 245.601C79.7427 244.559 79.0831 243.079 79.0831 241.522V235.667C79.0831 235.667 93.3944 252.903 119.06 252.037C126.743 251.774 133.229 250.579 138.549 249.033C151.024 245.404 157.114 239.844 157.114 239.844H157.202H157.191Z" fill="#B5D2F7"/>
<path d="M123.182 296.434L122.105 286.719C122.072 286.379 121.566 286.412 121.577 286.752L121.786 296.434C121.786 296.434 118.401 290.041 118.148 284.592C117.906 279.142 119.819 265.436 119.973 270.316C120.116 275.195 119.896 280.886 122.336 282.859C124.776 284.822 123.204 296.434 123.204 296.434H123.182Z" fill="#3079F2"/>
<path d="M126.908 123.957C126.425 125.69 124.798 128.606 123.017 131.49C120.357 135.799 114.158 135.964 111.234 131.841C110.509 130.81 109.783 129.769 109.102 128.749C105.606 123.53 104.243 115.339 104.243 115.339V103.596L106.662 99.144L123.16 104.802L127.788 111.271V117.433C127.788 117.433 128.139 119.604 126.919 123.968L126.908 123.957Z" fill="#4D79F7"/>
<path d="M138.439 75.1091C138.439 75.1091 140.703 80.8546 141.176 92.576C141.418 98.7492 140.89 104.879 140.329 109.297C139.879 112.861 136.273 115.12 132.866 113.957C126.227 111.688 116.235 107.335 111.839 100.591C104.969 90.0322 111.025 76.0959 111.025 76.0959L138.428 75.1091H138.439Z" fill="#6780FF"/>
<path d="M140.703 52.0721C140.703 52.0721 147.683 69.0238 138.439 75.1202C129.184 81.2166 121.27 76.6881 119.412 84.8131C117.554 92.938 121.039 93.0586 121.676 95.6134C122.314 98.1682 120.687 100.427 120.687 100.427C120.687 100.427 118.148 91.1178 114.059 94.802C108.574 99.7361 116.312 102.73 115.323 104.528C114.334 106.326 97.1316 104.758 94.6915 94.5388C92.2513 84.3196 98.2308 78.7824 98.2308 78.7824C98.2308 78.7824 94.1639 59.7475 112.432 57.423C125.875 55.7125 128.491 61.3155 136.636 57.8835C140.857 56.1072 140.714 52.0831 140.714 52.0831L140.703 52.0721Z" fill="#090A89"/>
<path d="M94.0211 121.139C93.6254 121.435 91.6138 122.981 88.668 125.405C90.3607 123.815 92.2184 122.389 94.0211 121.139Z" stroke="black" stroke-width="0.824013" stroke-miterlimit="10"/>
<path d="M96.9448 216.456C96.9448 216.456 96.714 219.471 93.8012 223.649C90.8994 227.827 87.1073 229.044 87.1073 229.044C87.1073 229.044 83.2492 224.91 78.05 218.715C78.4458 215.853 79.1491 212.706 80.3033 209.373C80.9078 207.629 81.1716 203.726 81.2706 198.572C81.3145 195.853 81.3145 192.794 81.2816 189.516C86.8214 197.893 94.153 211.314 96.3184 215.305C96.7141 216.05 96.9338 216.456 96.9338 216.456H96.9448Z" stroke="black" stroke-width="0.824013" stroke-miterlimit="10"/>
<path d="M187.143 168.507C185.374 182.981 167.765 209.932 159.345 222.125C159.323 220.371 159.18 218.693 158.861 217.213C157.224 209.516 155.003 206.643 155.19 202.125C155.19 202.06 155.19 201.983 155.201 201.906C155.201 201.687 155.234 201.478 155.245 201.248C155.487 198.869 155.784 195.952 156.081 192.663C157.334 190.272 158.543 187.915 159.631 185.667C163.203 178.299 165.522 172.18 164.335 170.591C163.775 169.834 162.698 168.825 161.269 167.586C160.664 167.071 159.994 166.523 159.279 165.93C158.609 165.393 157.608 165.843 157.586 166.709C157.553 168.727 157.487 170.733 157.399 172.729C157.235 176.994 156.982 181.172 156.696 185.075L139.956 211.873L138.527 214.154L142.407 216.731C141.626 218.024 141.176 218.759 141.176 218.759C141.176 218.759 142.22 222.355 146.298 225.261C150.365 228.167 154.904 228.397 154.904 228.397C154.904 228.397 155.388 227.739 156.234 226.566C157.004 225.491 158.059 223.967 159.345 222.103C159.378 224.274 159.224 226.577 158.993 228.77C158.367 234.581 157.158 239.669 157.114 239.822C157.114 239.822 151.024 245.392 138.549 249.022C133.229 250.568 126.743 251.763 119.06 252.026C93.3944 252.892 79.0832 235.656 79.0832 235.656C79.0832 235.656 77.6103 231.632 77.6103 225.053C77.6103 223.134 77.7313 221.018 78.061 218.704C81.3036 222.575 84.0295 225.645 85.6233 227.399C86.5686 228.452 87.1182 229.033 87.1182 229.033C87.1182 229.033 90.8993 227.816 93.8122 223.638C96.725 219.461 96.9558 216.445 96.9558 216.445C96.9558 216.445 96.736 216.04 96.3403 215.305L98.8245 211.577C98.8245 211.577 88.6899 189.636 81.2485 184.867C81.2265 183.156 81.1936 181.413 81.1606 179.647C81.1167 177.093 81.0507 174.494 81.0067 171.884C80.9847 170.941 79.8527 170.448 79.1492 171.095C77.9401 172.202 76.9727 173.08 76.3022 173.672C76.0274 173.924 75.7747 174.165 75.5438 174.406C72.9718 177.115 73.9611 178.968 77.1047 183.452C78.2479 185.075 79.6658 187.049 81.3035 189.516C81.3365 192.794 81.3365 195.864 81.2925 198.573C81.1936 203.715 80.9188 207.619 80.3252 209.373C79.1821 212.717 78.4787 215.853 78.072 218.715C76.797 217.202 75.4449 215.557 74.038 213.825C64.4751 201.983 52.8569 185.799 50.9883 175.009C48.724 161.928 70.4546 140.975 83.9086 129.418C85.6673 127.905 87.283 126.556 88.69 125.405C91.6467 122.981 93.6582 121.446 94.0429 121.139C94.0869 121.106 94.109 121.084 94.109 121.084C95.7687 119.944 97.3735 118.957 98.8135 118.135C98.8135 118.135 102.771 140.536 115.455 140.766C128.14 140.997 133.69 119.462 133.69 119.462C133.888 119.538 134.097 119.626 134.306 119.714C134.548 119.801 134.789 119.911 135.042 120.01C135.361 120.141 135.691 120.284 136.021 120.416C140.263 122.258 145.594 124.988 150.618 128.793C150.75 128.902 150.881 129.001 151.013 129.122C167.468 139.626 188.682 156.139 187.165 168.496L187.143 168.507Z" fill="#3079F2"/>
<path d="M156.696 185.086C156.498 187.761 156.289 190.305 156.081 192.663C155.916 192.97 155.762 193.266 155.597 193.573C155.432 193.88 155.267 194.187 155.113 194.494C154.619 195.415 154.124 196.325 153.629 197.235C153.465 197.542 153.3 197.838 153.135 198.145C151.244 201.588 149.354 204.921 147.65 207.871C147.408 208.288 147.166 208.704 146.935 209.099C146.089 210.546 145.298 211.895 144.594 213.09C144.451 213.331 144.319 213.562 144.187 213.792C144.176 213.825 144.154 213.847 144.132 213.88C143.99 214.132 143.836 214.362 143.704 214.603C143.22 215.426 142.78 216.139 142.418 216.742L138.538 214.165L156.707 185.086H156.696Z" fill="#0B62CE"/>
<path d="M158.993 228.781C158.367 234.68 157.114 239.844 157.114 239.844C157.114 239.844 151.024 245.403 138.548 249.033H138.527C138.527 249.033 121.852 232.004 104.254 200.919C86.6564 169.823 83.8975 129.418 83.8975 129.418C85.6561 127.904 87.2719 126.556 88.6789 125.404C91.6356 122.981 93.6471 121.446 94.0318 121.139C94.0318 121.139 107.541 163.047 119.027 185.086C123.996 194.625 132.228 204.154 139.955 211.884C146.496 218.419 152.673 223.671 156.234 226.577C157.564 227.651 158.521 228.408 159.004 228.781H158.993Z" fill="#090A89"/>
<path d="M133.679 119.462C133.679 119.462 128.14 140.997 115.444 140.766C102.76 140.536 98.8025 118.135 98.8025 118.135C101.935 116.337 104.243 115.339 104.243 115.339C104.243 115.339 105.617 123.519 109.102 128.749C109.783 129.769 110.509 130.81 111.234 131.841C114.158 135.975 120.357 135.799 123.017 131.49C124.798 128.606 126.425 125.69 126.908 123.957C128.128 119.593 127.777 117.422 127.777 117.422C127.777 117.422 129.557 117.905 132.36 118.957C132.767 119.111 133.207 119.275 133.657 119.462H133.679Z" fill="#B5D2F7"/>
<path d="M141.439 218.342C141.439 218.342 134.042 219.537 144.814 227.049C154.674 233.924 158.191 228.924 155.894 227.049C153.585 225.173 141.45 218.342 141.45 218.342H141.439Z" fill="#010968"/>
<path d="M83.8975 225.646C83.8975 225.646 87.1951 235.175 95.5048 224.692C102.397 215.996 95.3289 214.198 95.3289 214.198L83.9085 225.635L83.8975 225.646Z" fill="#090A89"/>
<path d="M100.143 179.647C100.143 179.647 101.748 184.691 104.232 189.976C106.716 195.261 108.145 196.643 108.145 196.643L116.807 190.426L110.322 188.386L113.685 183.057L106.936 182.86L110.41 176.95L100.154 179.647H100.143Z" fill="#B5D2F7"/>
<path d="M138.318 170.832C141.887 170.832 144.781 167.946 144.781 164.385C144.781 160.824 141.887 157.937 138.318 157.937C134.748 157.937 131.855 160.824 131.855 164.385C131.855 167.946 134.748 170.832 138.318 170.832Z" fill="#FFBB56"/>
<path d="M81.1386 179.648C81.0947 177.093 81.0287 174.495 80.9847 171.885C80.9627 170.942 79.8307 170.448 79.1272 171.095C77.9181 172.203 76.9509 173.08 76.2804 173.672C76.0056 173.924 75.7527 174.166 75.5219 174.407C75.6757 174.045 81.8641 160.108 82.5566 166.293C83.2601 172.565 81.1276 179.648 81.1276 179.648H81.1386Z" fill="#0B62CE"/>
<path d="M161.257 167.587C160.653 167.071 159.983 166.523 159.268 165.931C158.598 165.393 157.597 165.843 157.575 166.709C157.542 168.727 157.476 170.734 157.388 172.729C157.245 172.379 153.585 162.762 155.3 159.966C157.015 157.191 161.071 167.159 161.246 167.587H161.257Z" fill="#0B62CE"/>
<path d="M159.345 222.114C156.652 226.017 154.904 228.408 154.904 228.408C154.904 228.408 150.365 228.178 146.298 225.272C142.231 222.377 141.176 218.77 141.176 218.77C141.176 218.77 141.626 218.035 142.407 216.741C142.769 216.138 143.198 215.425 143.693 214.603C143.825 214.362 143.968 214.132 144.122 213.879C144.143 213.847 144.165 213.814 144.176 213.792C144.308 213.572 144.451 213.331 144.583 213.09C145.287 211.895 146.078 210.546 146.924 209.099C147.166 208.693 147.397 208.287 147.639 207.871C149.343 204.921 151.244 201.577 153.124 198.145C153.289 197.849 153.454 197.542 153.618 197.235C154.113 196.325 154.608 195.415 155.102 194.494C155.267 194.187 155.421 193.88 155.586 193.573C155.751 193.266 155.905 192.97 156.07 192.663C155.773 195.941 155.487 198.858 155.234 201.248C155.212 201.467 155.19 201.687 155.19 201.906C155.19 201.983 155.179 202.059 155.179 202.125C154.992 206.643 157.213 209.515 158.851 217.213C159.169 218.693 159.312 220.371 159.334 222.125L159.345 222.114Z" fill="#3079F2"/>
<path d="M96.3184 215.294C96.3184 215.294 95.0873 220.568 92.6141 223.342C90.141 226.105 85.6124 227.41 85.6124 227.41C84.0186 225.656 81.2926 222.585 78.05 218.715C78.4458 215.853 79.1491 212.706 80.3033 209.373C80.9078 207.629 81.1716 203.726 81.2706 198.572C81.3145 195.853 81.3145 192.794 81.2816 189.516L83.8866 190.568L96.3184 215.305V215.294Z" fill="#3079F2"/>
<path d="M98.8134 211.577L96.3292 215.305C94.1749 211.303 86.8433 197.882 81.2924 189.505C81.2815 188.003 81.2595 186.457 81.2266 184.867C88.668 189.637 98.8024 211.577 98.8024 211.577H98.8134Z" fill="#0B62CE"/>
<path d="M266.955 413.286C266.955 413.286 262.591 415.896 257.875 415.896C253.16 415.896 249.324 413.461 249.324 413.461L236.386 297.037L250.027 289.12L256.238 293.693L252.786 299.427L265.701 367.826L265.767 367.321L266.966 413.275L266.955 413.286Z" fill="#6780FF"/>
<path d="M267.372 414.064C265.932 414.36 264.492 414.733 263.085 415.161C245.751 420.38 231.649 434.185 231.649 434.185H209.874C209.874 434.185 228.549 415.895 249.324 413.461C249.324 413.461 251.137 414.612 253.797 415.336C255.017 415.665 256.391 415.895 257.864 415.895C259.744 415.895 261.557 415.489 263.063 414.985C265.35 414.229 266.943 413.286 266.943 413.286C266.943 413.286 267.108 413.56 267.35 414.064H267.372Z" fill="#0B62CE"/>
<path d="M288.729 413.286C288.729 413.286 284.365 415.895 279.65 415.895C274.934 415.895 271.098 413.461 271.098 413.461L265.866 366.455L265.69 364.865L258.161 297.048L259.623 296.203L267.955 291.357L271.802 289.131L285.728 298.1L288.729 413.286Z" fill="#6780FF"/>
<path d="M265.756 367.332L265.69 367.836L252.775 299.427L256.226 293.703L259.612 296.192L258.161 297.037L265.69 364.832V364.854L265.756 367.332Z" fill="#466AF9"/>
<path d="M298.754 294.712C298.754 294.712 286.74 300.655 257.601 299.219C228.45 297.783 218.734 292.201 218.734 292.201C218.734 292.201 220.02 258.89 228.615 238.989C232.946 228.978 265.592 234.066 281.782 237.279C287.245 238.353 290.829 239.23 290.829 239.23C290.829 239.23 296.193 246.84 298.985 266.325C300.93 279.866 298.743 294.723 298.743 294.723L298.754 294.712Z" fill="#FFBB56"/>
<path d="M298.996 266.313C298.996 266.313 295.467 262.278 292.334 252.355C289.257 242.574 269.944 246.763 269.373 246.884L281.782 237.278C287.245 238.353 290.829 239.23 290.829 239.23C290.829 239.23 296.193 246.84 298.985 266.324L298.996 266.313Z" fill="#F48919"/>
<path d="M197.168 210.766C197.168 210.766 195.508 215.382 194.112 216.862C193.606 217.41 192.002 218.858 189.968 219.899C192.408 214.921 188.407 204.044 185.923 201.193C186.121 201.16 186.297 201.128 186.429 201.117C188.693 200.875 192.199 201.117 192.199 201.117L197.168 210.766Z" fill="#6780FF"/>
<path d="M190.858 218.704C190.463 219.516 189.891 220.152 189.089 220.546C186.22 221.972 183.813 220.459 182.087 218.474C179.493 215.481 178.416 211.402 179.273 207.531C179.944 204.527 181.713 201.391 186.176 200.919C186.44 200.897 186.781 201.128 187.154 201.555C189.43 204.165 193.09 214.143 190.858 218.704Z" fill="#758FFC"/>
<path d="M231.22 93.7273C231.22 93.7273 230.165 98.793 230.341 105.054C230.517 111.326 226.241 114.374 227.109 121.688C227.978 129.001 238.112 134.308 244.037 130.657C249.972 126.995 247.18 101.227 247.18 101.227L231.22 93.7273Z" fill="#090A89"/>
<path d="M286.97 134.549C283.53 131.315 277.924 131.019 274.165 134.692C271.824 136.973 269.57 140.679 268.13 146.676C263.943 164.089 265.108 175.909 256.259 185.086C249.873 191.72 236.023 206.446 228.813 214.121C228.692 210.843 228.681 207.487 228.846 204.307C229.275 196.04 230.77 189.702 231.693 185.086C232.023 183.419 232.286 181.983 232.396 180.766C232.473 179.911 232.484 179.154 232.396 178.496C231.814 174.319 224.141 173.277 224.251 164.1C224.35 155.876 228.098 150.931 230.879 142.554C231.209 141.578 231.517 140.558 231.803 139.483C233.298 133.957 236.727 129.199 239.596 125.975C242.091 123.157 244.157 121.501 244.157 121.501L262.085 121.128C262.085 121.128 263.976 121.764 266.745 122.85C273.011 125.306 283.772 130.01 286.948 134.549H286.97Z" fill="#3079F2"/>
<path d="M266.768 122.861C266.768 122.861 259.172 142.554 249.28 141.468C241.3 140.602 239.618 125.975 239.618 125.975C242.113 123.157 244.18 121.501 244.18 121.501L262.107 121.128C262.107 121.128 263.998 121.764 266.768 122.85V122.861Z" fill="#B5D2F7"/>
<path d="M243.355 114.012C243.355 114.012 244.476 117.159 244.312 120.207C244.136 123.256 243.267 125.492 244.334 128.793C244.784 130.207 245.85 132.313 246.928 134.253C248.313 136.775 251.786 137.192 253.698 135.043C256.49 131.918 259.953 127.51 261.25 123.683C263.008 118.486 263.778 116.545 263.778 116.545V106.578L249.774 107.148L243.355 114.012Z" fill="#4D79F7"/>
<path d="M233.749 81.3809C233.749 81.3809 231.242 88.5191 231.011 97.2252C230.88 102.269 231.814 108.475 232.627 112.806C233.199 115.832 236.145 117.806 239.156 117.159C246.004 115.712 257.743 112.378 264.756 105.69C275.11 95.8216 260.92 78.6397 260.92 78.6397L240.673 76.3152L234.859 79.1003L233.749 81.359V81.3809Z" fill="#6780FF"/>
<path d="M235 79.2459C235 79.2459 255.719 81.5704 260.369 92.4804C265.018 103.39 249.916 135.397 279.484 125.287C301.819 117.645 284.694 93.6427 277.362 92.4804C277.362 92.4804 275.263 66.4719 257.577 66.0114C239.891 65.5508 235 79.2459 235 79.2459Z" fill="#090A89"/>
<path d="M294.324 230.557C294.324 230.557 294.159 231.061 293.544 231.84C291.653 234.274 285.487 239.439 266.735 240.886C242.718 242.739 231.308 234.625 230.638 234.121C230.616 234.099 230.605 234.088 230.605 234.088C230.605 234.088 230.484 233.254 230.297 231.829C230.154 230.689 229.978 229.165 229.791 227.388C230.923 228.244 231.891 228.759 232.616 229.055C233.496 229.428 234.012 229.483 234.012 229.483C234.012 229.483 234.408 229.187 235.111 228.638L237.189 230.382C237.189 230.382 272.439 202.97 280.826 190.678C295.247 169.538 289.389 152.477 289.389 152.477C289.587 150.788 289.773 149.363 289.96 148.244C290.4 145.624 290.422 143.387 290.158 141.468C292.28 148.497 291.884 156.369 291.884 164.702C291.884 175.766 295.555 187.597 296.951 199.264C298.347 210.93 294.335 230.557 294.335 230.557H294.324Z" fill="#3079F2"/>
<path d="M232.605 229.066C232.605 229.066 232.209 230.184 231.561 231.84C231.286 232.52 230.978 233.298 230.638 234.121C230 235.645 229.253 237.355 228.439 239.022C226.626 242.706 224.526 246.116 222.746 246.631C218.679 247.794 212.04 241.752 210.523 237.925C209.006 234.099 220.185 230.491 221.767 228.989C223.361 227.476 219.943 227.125 218.668 225.162C217.382 223.189 225.01 221.412 225.01 221.412H230.759L232.583 229.066H232.605Z" fill="#6780FF"/>
<path d="M222.229 162.871C222.229 153.277 230.638 142.871 230.901 142.542C231.231 141.566 231.539 140.547 231.825 139.472C233.32 133.946 236.749 129.187 239.618 125.964C239.321 126.128 229.846 131.698 226.241 141.457C222.57 151.369 217.513 173.31 211.226 182.542C204.939 191.774 192.112 199.691 192.112 199.691C192.112 199.691 191.947 202.224 193.771 205.963C195.596 209.713 197.959 211.456 197.959 211.456C197.959 211.456 214.359 208.419 231.704 185.097C232.034 183.43 232.297 181.994 232.407 180.777C232.407 180.777 222.218 172.641 222.218 162.893L222.229 162.871Z" fill="#3079F2"/>
<path d="M280.826 190.678C272.428 202.97 237.189 230.382 237.189 230.382L235.111 228.638C241.981 223.32 278.836 194.296 283.376 181.16C287.366 169.604 288.575 159.088 289.378 152.487C289.378 152.487 295.247 169.549 280.815 190.689L280.826 190.678Z" fill="#0B62CE"/>
<path d="M232.407 180.766C232.407 180.766 222.218 172.63 222.218 162.882C222.218 153.134 230.627 142.882 230.89 142.553C228.109 150.931 224.35 155.876 224.262 164.099C224.142 173.277 231.825 174.319 232.407 178.496C232.495 179.154 232.495 179.911 232.407 180.766Z" fill="#0B62CE"/>
<path d="M293.543 231.84V235.996C293.543 238.167 292.257 240.13 290.279 241.018C284.838 243.441 272.956 247.751 257.293 247.718C238.903 247.674 228.439 239.033 228.439 239.033C229.253 237.367 230 235.656 230.638 234.132C231.319 234.636 242.717 242.751 266.734 240.898C285.486 239.45 291.653 234.285 293.543 231.851V231.84Z" fill="#B5D2F7"/>
<path d="M263.514 169.166C267.515 169.166 270.758 165.931 270.758 161.94C270.758 157.949 267.515 154.714 263.514 154.714C259.514 154.714 256.271 157.949 256.271 161.94C256.271 165.931 259.514 169.166 263.514 169.166Z" fill="#FFBB56"/>
<path d="M274.825 225.394C274.319 225.262 273.956 224.769 274.011 224.231C274.022 224.067 274.407 220.152 276.693 216.029C279.078 211.731 282.596 210.547 282.75 210.503C283.332 210.316 283.948 210.634 284.135 211.215C284.321 211.797 284.003 212.411 283.431 212.597C283.299 212.641 280.562 213.606 278.628 217.104C276.561 220.832 276.22 224.407 276.22 224.44C276.166 225.043 275.627 225.492 275.022 225.438C274.956 225.438 274.902 225.416 274.836 225.405L274.825 225.394Z" fill="#0B62CE"/>
<path d="M289.96 148.244C289.773 149.363 289.587 150.788 289.389 152.477C288.586 159.077 287.366 169.593 283.387 181.15C278.836 194.296 241.992 223.309 235.122 228.627C234.408 229.175 234.023 229.472 234.023 229.472C234.023 229.472 232.308 229.285 229.802 227.377C229.319 227.004 228.802 226.577 228.263 226.072C224.944 222.936 224.273 218.989 224.273 218.989C224.273 218.989 226.065 217.081 228.835 214.121C236.046 206.434 249.884 191.709 256.281 185.086H256.292C259.59 181.643 261.502 177.827 262.822 173.507C265.009 166.259 265.525 157.564 268.152 146.676C269.592 140.689 271.846 136.983 274.187 134.692C277.946 131.018 283.552 131.314 286.992 134.549C288.092 135.569 288.971 136.907 289.51 138.507C289.806 139.396 290.037 140.382 290.169 141.468C290.433 143.387 290.411 145.624 289.971 148.244H289.96Z" fill="#3079F2"/>
<path d="M263.954 180.766C262.041 181.271 256.622 184.867 256.281 185.087C259.579 181.655 261.492 177.839 262.811 173.518C262.953 173.825 265.888 180.273 263.954 180.766Z" fill="#0B62CE"/>
<path d="M263.085 414.985V424.755L231.649 434.185H227.648C227.648 434.185 229.912 430.358 234.628 426.169C239.266 422.058 253.402 415.523 253.797 415.336C255.017 415.665 256.391 415.895 257.864 415.895C259.744 415.895 261.557 415.49 263.063 414.985H263.085Z" fill="#0554A3"/>
<path d="M292.214 434.174H231.638C231.638 434.174 248.126 418.023 267.361 414.053C268.592 413.801 269.845 413.593 271.087 413.45C271.087 413.45 274.924 415.885 279.639 415.885C284.354 415.885 288.718 413.275 288.718 413.275C288.718 413.275 291.158 417.463 292.214 423.373C293.258 429.294 292.214 434.174 292.214 434.174Z" fill="#0B62CE"/>
<path d="M368.024 291.631L364.913 401.915C364.913 401.915 363.341 404.876 358.285 404.7C353.218 404.525 350.602 402.091 350.602 402.091L343.853 289.12L368.024 291.631Z" fill="#6780FF"/>
<path d="M343.853 295.458L340.753 405.446C340.753 405.446 339.181 408.406 334.125 408.231C329.058 408.055 326.442 405.621 326.442 405.621L319.693 292.651L343.864 295.458H343.853Z" fill="#6780FF"/>
<path d="M375.663 425.029H321.023C321.023 425.029 319.682 418.329 321.023 414.229C322.331 410.226 326.431 405.61 326.431 405.61C326.431 405.61 329.047 408.044 334.114 408.22C339.181 408.395 340.742 405.435 340.742 405.435C342.061 405.873 344.04 406.794 346.403 408C353.339 411.564 363.572 417.65 369.914 421.498C373.366 423.593 375.663 425.018 375.663 425.018V425.029Z" fill="#090A89"/>
<path d="M399.834 421.51H369.925C363.583 417.661 353.361 411.575 346.414 408.012C348.129 404.887 350.613 402.102 350.613 402.102C350.613 402.102 353.229 404.536 358.296 404.711C363.363 404.887 364.924 401.926 364.924 401.926C372.256 404.361 399.834 421.51 399.834 421.51Z" fill="#090A89"/>
<path d="M372.091 239.044V290.403C372.091 290.403 363.308 294.405 352.36 291.982L352.91 262.3C357.746 251.961 359.714 241.27 359.714 241.27H346.381C346.546 237.838 346.689 235.722 346.689 235.722L372.08 239.044H372.091Z" fill="#1E56C6"/>
<path d="M353.361 244.778L353.031 262.18L352.482 291.861L352.449 293.298C352.449 293.298 343.545 296.609 333.081 296.192C322.617 295.776 313.516 289.12 313.516 289.12C313.516 289.12 313.516 274.668 314.109 269.965C314.703 265.261 310.251 257.596 310.251 248.375C310.251 240.886 314.109 234.099 314.109 234.099L344.007 242.245L346.414 242.903L353.35 244.789L353.361 244.778Z" fill="#1E56C6"/>
<path d="M352.514 283.704L353.361 244.779L346.425 242.893C346.458 242.29 346.48 241.697 346.502 241.16H359.835C359.835 241.16 357.34 273.375 352.514 283.704Z" fill="#090A89"/>
<path d="M412.442 108.606C402.571 128.168 394.107 136.567 387.842 140.711C387.787 140.744 387.721 140.777 387.655 140.832C387.534 140.909 387.413 140.986 387.303 141.051C382.027 144.407 378.389 144.768 376.883 146.512C375.267 148.387 374.828 150.744 374.553 153.661C374.267 156.72 374.179 160.404 373.102 164.801C371.003 173.386 377.059 184.768 378.026 197.772C379.005 210.777 373.564 234.811 373.564 234.811C373.564 234.811 373.52 234.822 373.443 234.855C372.146 235.349 360.483 239.691 346.326 239.789C331.311 239.899 313.505 229.493 313.505 229.493C313.505 229.493 310.24 221.687 310.24 211.467C310.24 209.198 310.35 207.136 310.515 205.217C310.515 205.217 310.515 205.195 310.515 205.185C311.141 198.496 312.691 193.606 313.955 188.003C315.033 183.211 314.065 174.724 314.461 164.099C314.648 158.76 315.197 152.882 316.516 146.676C319.022 134.9 326.926 128.54 332.367 125.47C335.51 123.683 337.851 122.992 337.851 122.992C337.269 122.236 348.195 123.771 363.121 120.273C369.651 118.749 376.949 116.249 384.369 112.192C395.679 105.997 418.322 61.3481 418.322 61.3481C418.322 61.3481 419.245 61.3152 420.575 61.4358H420.586C421.697 61.5345 423.082 61.7318 424.434 62.1266C426.115 62.6309 427.269 63.5081 427.951 64.177C428.468 64.6814 428.709 65.0651 428.709 65.0651C428.709 65.0651 431.04 71.677 412.42 108.596L412.442 108.606Z" fill="#3079F2"/>
<path d="M357.911 150.24C347.26 151.03 332.366 125.975 332.366 125.975C332.366 125.975 332.377 125.778 332.388 125.471C335.532 123.683 337.873 122.993 337.873 122.993C337.291 122.236 348.217 123.771 363.143 120.273C363.143 120.273 366.716 149.571 357.911 150.229V150.24Z" fill="#B5D2F7"/>
<path d="M339.456 114.878L337.873 122.992C337.873 122.992 339.533 130.481 346.161 137.356C348.997 140.306 351.745 142.586 353.954 144.242C355.988 145.766 358.901 144.308 358.89 141.764C358.879 139.023 358.857 135.876 358.813 133.617C358.725 128.738 358.208 127.203 358.813 124.275C359.417 121.347 359.978 118.551 359.978 118.551L356.45 110.547L339.434 114.878H339.456Z" fill="#4D79F7"/>
<path d="M376.367 88.2886C376.367 88.2886 378.345 98.1568 377.993 105.47C377.796 109.659 376.378 115.909 375.201 120.503C374.454 123.431 371.145 124.867 368.485 123.42C367.353 122.806 366.133 122.17 364.913 121.611C360.604 119.637 358.164 116.852 358.164 116.852L351.943 118.475L344.732 109.418L358.758 86.2601L376.389 88.2886H376.367Z" fill="#6780FF"/>
<path d="M381.72 69.1332C381.72 69.1332 380.906 83.0585 376.367 88.2887C371.827 93.508 363.143 92.3566 361.374 96.8741C359.604 101.403 361.758 104.418 361.813 106.742C361.868 109.067 360.67 111.677 360.67 111.677C360.67 111.677 355.757 99.6593 352.031 105.986C348.305 112.313 358.604 114.637 359.01 116.03C359.417 117.422 359.417 119.166 355.229 120.119C351.041 121.073 336.895 117.685 334.631 107.06C332.366 96.4356 338.731 92.4333 338.731 92.4333C338.731 92.4333 337.95 75.2844 355.746 72.8393C367.771 71.1946 368.101 75.098 373.64 74.3195C377.367 73.7932 381.698 69.1222 381.698 69.1222L381.72 69.1332Z" fill="#090A89"/>
<path d="M443.68 149.122C442.559 150.777 438.503 150.514 435.865 154.955C435.612 155.371 435.392 155.788 435.205 156.205C434.601 157.477 434.205 158.683 433.842 159.768C433.084 162.038 432.414 163.803 430.039 164.615C425.818 166.051 418.839 171.654 415.233 171.402C411.628 171.139 414.794 164.023 414.794 164.023C414.794 164.023 417.212 163.135 419.597 160.887C421.993 158.617 427.412 149.472 432.754 148.255C438.096 147.038 444.801 147.466 443.68 149.122Z" fill="#6780FF"/>
<path d="M439.404 156.863C439.547 157.619 435.073 159.703 433.842 159.768C434.205 158.672 434.601 157.466 435.205 156.205C435.205 156.205 436.667 155.854 437.69 155.799C438.712 155.744 439.261 156.117 439.404 156.874V156.863Z" fill="#466AF9"/>
<path d="M371.86 183.047C371.86 183.047 344.6 187.827 337.093 184.055C321.836 176.391 319.704 161.665 319.704 161.665C322.375 166.72 327.442 172.466 336.554 178.496C343.237 182.926 360.89 183.529 371.849 183.047H371.86Z" fill="#0B62CE"/>
<path d="M331.058 223.859H331.015C330.421 223.837 329.97 223.343 329.992 222.751C329.992 222.707 330.146 218.453 328.97 214.779C327.838 211.227 325.178 209.099 325.145 209.077C324.683 208.715 324.606 208.047 324.969 207.586C325.332 207.125 326.002 207.049 326.464 207.411C326.596 207.509 329.674 209.966 331.004 214.132C332.29 218.168 332.125 222.653 332.125 222.839C332.103 223.409 331.63 223.859 331.058 223.859Z" fill="#0B62CE"/>
<path d="M373.454 234.844C373.454 237.991 371.442 240.799 368.452 241.775C364.166 243.178 357.208 244.856 347.964 245.097C335.972 245.404 323.958 240.722 317.78 237.86C315.186 236.654 313.516 234.077 313.516 231.226V229.493C313.516 229.493 331.322 239.889 346.337 239.79C360.494 239.68 372.157 235.349 373.454 234.855V234.844Z" fill="#B5D2F7"/>
<path d="M368.485 164.1C368.485 167.565 365.672 170.372 362.198 170.372C358.725 170.372 355.911 167.565 355.911 164.1C355.911 160.635 358.725 157.828 362.198 157.828C365.672 157.828 368.485 160.635 368.485 164.1Z" fill="#FFBB56"/>
<path d="M430.567 53.8702C429.962 55.789 431.007 59.7802 430.138 61.3591C429.27 62.9271 427.995 64.199 427.995 64.199H427.984C427.302 63.5192 426.159 62.642 424.466 62.1486C423.114 61.7539 421.729 61.5565 420.619 61.4688H420.608C420.608 61.4688 421.29 60.449 421.29 57.8833C421.29 55.3175 429.787 28.8594 431.303 29.1006C432.809 29.3309 427.181 49.5281 428.83 48.2233C430.49 46.9185 433.623 45.7891 434.326 46.6663C435.03 47.5325 431.182 51.9732 430.567 53.8921V53.8702Z" fill="#6780FF"/>
<path d="M414.849 173.847C414.849 173.847 388.15 182.542 364.506 183.595C353.548 184.077 343.237 182.926 336.554 178.496C327.442 172.455 322.364 166.709 319.704 161.665C313.779 150.47 319.715 142.685 319.715 142.685C319.715 142.685 323.991 135.722 348.074 158.529C361.099 170.865 413.936 161.72 413.936 161.72C413.936 161.72 415.157 163.584 415.508 167.235C415.86 170.897 414.838 173.847 414.838 173.847H414.849Z" fill="#3079F2"/>
<path d="M319.704 183.693C318.989 189.395 312.329 196.588 310.548 205.184C311.174 198.496 312.724 193.606 313.988 188.003C315.065 183.211 314.098 174.724 314.494 164.099C314.659 164.505 320.407 178.069 319.715 183.693H319.704Z" fill="#0B62CE"/>
<path d="M387.314 141.051C382.038 144.407 378.4 144.769 376.894 146.512C375.278 148.387 374.839 150.745 374.564 153.662C374.564 153.662 369.519 138.452 373.234 140.306C376.817 142.093 384.215 142.839 387.314 141.062V141.051Z" fill="#0B62CE"/>
<path d="M620.285 393.955C620.285 393.955 619.208 395.238 616.196 396.773C614.679 397.551 612.667 398.396 610.04 399.174C606.666 400.172 603.533 400.084 601.071 399.657C597.85 399.097 595.773 397.957 595.773 397.957C595.773 397.957 565.81 304.548 556.027 289.471C555.642 288.879 555.246 288.243 554.829 287.574C553.993 286.226 553.103 284.723 552.18 283.112C545.2 270.985 535.78 252.125 529.779 239.844L529.745 239.779C529.548 239.362 529.339 238.945 529.141 238.551C525.975 232.059 523.909 227.706 523.909 227.706C523.909 227.706 574.878 222.827 578.329 227.706C581.781 232.586 580.945 238.156 579.395 256.27C577.857 274.384 584.781 287.037 594.201 311.072C603.632 335.107 620.263 393.955 620.263 393.955H620.285Z" fill="#FFBB56"/>
<path d="M618.955 404.58C618.955 404.58 616.702 406.609 611.909 408.067C607.359 409.449 602.951 407.837 602.951 407.837L601.082 399.668C603.544 400.095 606.666 400.194 610.052 399.185C612.668 398.407 614.69 397.562 616.207 396.784L618.955 404.58Z" fill="#6780FF"/>
<path d="M625.374 416.444C624.506 418.308 605.743 424.952 602.951 425.029C600.159 425.117 577.285 426.17 577.285 423.637C577.285 420.643 590.992 417.288 595.18 415.281C599.368 413.286 602.94 407.825 602.94 407.825C602.94 407.825 607.348 409.437 611.898 408.056C616.691 406.597 618.944 404.569 618.944 404.569C623.165 407.178 626.242 414.58 625.363 416.433L625.374 416.444Z" fill="#0B62CE"/>
<path d="M552.202 283.1C551.883 284.142 551.542 285.293 551.179 286.532C549.838 284.723 547.992 282.026 545.695 278.089C541.463 270.875 531.944 253.068 528.24 246.116C529.163 242.169 529.767 239.778 529.767 239.778L529.801 239.844C535.802 252.125 545.222 270.984 552.202 283.111V283.1Z" fill="#F48919"/>
<path d="M552.795 400.687C552.795 400.687 551.806 401.093 549.828 401.499C547.86 401.904 544.936 402.31 541.034 402.31C537.407 402.31 534.164 401.805 531.724 401.268C528.921 400.643 527.185 399.963 527.185 399.963C527.185 399.963 519.853 328.824 518.996 307.234C518.336 290.567 525.107 259.46 528.229 246.116C531.933 253.068 541.452 270.875 545.684 278.09C547.992 282.026 549.828 284.723 551.169 286.532C549.641 291.817 547.75 298.725 546.255 305.491C543.233 319.197 552.773 400.687 552.773 400.687H552.795Z" fill="#FFBB56"/>
<path d="M523.92 227.706L524.239 231.072C524.403 232.827 525.558 234.318 527.217 234.932C531.658 236.577 541.166 239.428 552.784 239.055C563.765 238.704 572.383 235.908 576.79 234.143C578.714 233.375 579.868 231.401 579.626 229.351L579.406 227.574L523.92 227.706Z" fill="#B5D2F7"/>
<path d="M549.828 401.499V408.922C549.828 408.922 546.277 410.721 541.507 410.951C536.736 411.181 531.735 408.341 531.735 408.341V401.257C534.175 401.795 537.418 402.299 541.045 402.299C544.936 402.299 547.871 401.893 549.839 401.488L549.828 401.499Z" fill="#6780FF"/>
<path d="M549.828 424.175C549.828 424.175 501.881 418.341 504.585 411.981C505.871 408.966 531.735 408.352 531.735 408.352C531.735 408.352 536.736 411.191 541.507 410.961C546.277 410.72 549.828 408.933 549.828 408.933C549.828 408.933 551.048 411.137 551.399 414.854C551.751 418.571 549.828 424.175 549.828 424.175Z" fill="#0B62CE"/>
<path d="M580.473 226.862C580.473 226.862 573.031 232.849 553.949 234.088C532.647 235.48 523.92 227.695 523.92 227.695C523.92 227.695 515.544 214.702 516.479 199.604C517.402 184.505 520.227 176.446 518.996 171.391C518.413 169.034 516.698 162.707 515.83 155.766C515.072 149.812 514.94 143.398 516.676 138.661C517.237 137.115 517.995 135.755 518.996 134.648C519.655 133.913 520.359 133.223 521.084 132.576C528.756 125.777 539.319 124.078 539.319 124.078C539.319 124.078 540.726 124.253 543.002 125.076C545.035 125.81 547.783 127.071 550.806 129.187C552.235 130.196 553.741 131.391 555.258 132.817H555.268C560.303 137.521 565.579 144.746 569.536 155.766C574.614 169.911 577.329 187.027 578.791 200.919C579.033 203.145 579.22 205.283 579.395 207.312C579.516 208.836 579.637 210.305 579.736 211.698C580.396 220.798 580.451 226.851 580.451 226.851L580.473 226.862Z" fill="#3079F2"/>
<path d="M543.013 125.097C542.188 133.474 524.689 150.81 520.26 148.189C515.962 145.656 516.632 139.056 516.676 138.672C517.237 137.126 517.995 135.766 518.996 134.659C526.668 126.128 539.32 124.089 539.32 124.089C539.32 124.089 540.726 124.264 543.002 125.086L543.013 125.097Z" fill="#B5D2F7"/>
<path d="M518.996 122.597C518.996 122.597 520.293 125.701 520.381 128.058C520.469 130.405 518.963 132.532 518.996 136.589C519.007 138.025 519.391 140.064 519.831 141.928C520.37 144.209 523.085 145.152 524.909 143.694C527.756 141.424 531.658 137.904 534.769 133.628C540.353 125.964 539.309 124.111 539.309 124.111C539.309 124.111 537.583 120.295 537.528 118.738C537.473 117.181 526.305 114.045 526.305 114.045L518.985 122.608L518.996 122.597Z" fill="#4D79F7"/>
<path d="M521.084 132.598C520.359 133.234 519.655 133.924 518.996 134.67C517.995 135.777 517.237 137.137 516.677 138.672C514.94 143.42 515.072 149.834 515.83 155.788C515.83 155.788 514.61 153.76 512.719 150.986C509.84 146.775 505.432 140.854 501.354 137.631C494.605 132.291 485.295 125.613 479.008 102.105C472.721 78.596 472.204 68.3219 472.204 68.3219C472.204 68.3219 473.776 66.2715 476.656 65.5368C479.535 64.8022 483.031 65.5368 483.031 65.5368C483.031 65.5368 490.186 99.7909 496.001 104.659C501.827 109.539 510.081 117.773 510.081 117.773L518.996 126.666L520.381 128.047L521.084 132.598Z" fill="#3079F2"/>
<path d="M512.06 90.8432C512.06 90.8432 508.224 97.6962 507.289 105.35C506.839 109.045 506.971 113.979 507.234 118.091C507.498 122.29 511.664 125.086 515.665 123.76C521.623 121.786 529.614 118.485 534.296 113.814C542.441 105.69 534.296 89.4397 534.296 89.4397L512.071 90.8322L512.06 90.8432Z" fill="#6780FF"/>
<path d="M515.116 71.9622C515.116 71.9622 503.563 81.4467 512.06 90.8435C519.117 98.6505 521.777 96.008 523.348 100.712C524.92 105.416 523.315 103.979 523.876 107.762C524.162 109.736 524.744 109.944 524.744 109.944C524.744 109.944 528.053 98.9356 531.988 102.894C537.374 108.31 529.02 110.383 528.58 114.297C528.317 116.655 533.824 122.181 540.803 116.995C550.058 110.12 544.035 101.589 544.035 101.589C544.035 101.589 547.091 84.462 534.692 81.1287C523.645 78.1573 521.37 81.0958 518.369 79.0344C516.467 77.7296 515.105 71.9622 515.105 71.9622H515.116Z" fill="#090A89"/>
<path d="M520.436 208.43C520.436 208.43 512.5 214.318 510.807 219.691C508.477 227.059 512.555 239.263 513.489 233.858C514.599 227.41 518.105 218.364 519.842 217.663C521.579 216.961 519.15 222.268 521.491 221.72C523.579 221.237 524.623 216.149 525.888 215.645C527.163 215.141 520.436 208.43 520.436 208.43Z" fill="#6780FF"/>
<path d="M570.657 182.761C566.975 190.272 557.555 194.702 556.961 194.976C564.48 187.52 570.514 179.428 570.25 172.86C570.074 168.65 569.459 164.889 568.58 161.555C568.876 162.06 575.383 173.156 570.657 182.761Z" fill="#0B62CE"/>
<path d="M542.375 166.293C546.133 166.293 549.179 163.254 549.179 159.505C549.179 155.757 546.133 152.718 542.375 152.718C538.617 152.718 535.571 155.757 535.571 159.505C535.571 163.254 538.617 166.293 542.375 166.293Z" fill="#FFBB56"/>
<path d="M561.083 218.738C560.731 218.738 560.391 218.54 560.248 218.189C560.16 218.003 559.456 216.26 560.182 212.597C560.929 208.88 562.699 207.158 562.776 207.092C563.15 206.742 563.732 206.753 564.084 207.125C564.436 207.498 564.425 208.079 564.051 208.43C564.018 208.463 562.611 209.889 561.995 212.97C561.38 216.029 561.929 217.444 561.94 217.455C562.127 217.926 561.919 218.464 561.446 218.661C561.325 218.716 561.204 218.738 561.072 218.738H561.083Z" fill="#0B62CE"/>
<path d="M473.479 67.0939C473.479 67.0939 473.677 66.2715 472.896 65.2079C472.116 64.1662 470.269 63.3987 469.95 58.4536C469.906 58.4536 469.862 58.4426 469.818 58.4207C468.137 57.7628 463.784 52.6861 464.433 51.0414C465.092 49.3966 469.708 51.5019 469.708 51.5019C469.708 51.5019 469.752 51.6883 469.818 51.9843C469.752 47.7848 469.522 43.3112 468.104 40.2849C465.916 35.6687 463.674 33.0591 466.444 33.4099C470.555 33.9253 476.139 49.2541 477.447 53.344C478.755 57.4448 480.327 62.6202 480.59 65.2079C480.854 67.7956 473.501 67.0939 473.501 67.0939H473.479Z" fill="#6780FF"/>
<path d="M601.401 210.382C596.246 212.378 588.716 213.902 579.758 211.709C578.692 196.862 576.054 173.891 569.558 155.788C564.403 141.424 557.005 133.53 550.828 129.22C550.828 129.22 556.697 126.084 563.512 124.111C564.48 123.826 565.458 123.661 566.425 123.584C572.097 123.113 577.571 125.81 580.879 130.426C584.935 136.073 591.53 146.512 595.696 159.527C596.18 161.018 596.62 162.553 597.026 164.11C600.335 176.786 603.05 189.253 604.764 197.63C605.149 199.483 605.479 201.139 605.754 202.553C606.413 205.864 604.578 209.165 601.412 210.393L601.401 210.382Z" fill="#1E56C6"/>
<path d="M604.742 197.608C603.028 189.231 600.313 176.764 597.004 164.088C596.598 162.531 596.158 160.996 595.674 159.505C595.674 159.505 605.732 154.867 610.502 174.022C616.679 198.748 604.742 197.597 604.742 197.597V197.608Z" fill="#090A89"/>
<path d="M579.407 207.334C579.407 207.334 567.371 201.742 560.314 193.134C553.246 184.527 558.368 179.999 558.368 179.999L564.656 190.02C564.656 190.02 570.47 197.027 578.791 200.93C579.033 203.156 579.22 205.294 579.396 207.323L579.407 207.334Z" fill="#090A89"/>
<path d="M570.25 172.86C570.514 179.428 564.48 187.52 556.961 194.976C544.936 206.895 529.119 217.213 529.119 217.213C529.119 217.213 525.448 216.073 522.744 213.288C520.04 210.503 519.007 206.062 519.007 206.062C519.007 206.062 531.911 192.63 539.407 184.779C539.407 184.779 539.407 184.779 539.418 184.779C540.32 183.836 541.155 182.97 541.859 182.213C546.541 177.301 548.871 174.724 546.827 167.323C545.98 164.242 544.365 160.328 541.859 155.054C536.341 143.486 537.945 136.841 539.77 133.584C539.946 133.266 540.144 132.981 540.386 132.718C540.386 132.718 540.386 132.707 540.397 132.685C541.584 131.337 543.408 130.635 545.233 130.931C546.145 131.084 547.222 131.38 548.421 131.94C551.201 133.233 554.609 135.898 558.159 141.227C560.687 145.032 565.887 151.358 568.591 161.545C569.481 164.889 570.096 168.639 570.261 172.86H570.25Z" fill="#3079F2"/>
<path d="M555.269 132.839C555.038 132.751 551.872 132.17 548.41 131.94C547.212 131.381 546.145 131.085 545.222 130.931C543.398 130.635 541.573 131.337 540.386 132.686C540.628 132.269 544.046 127.587 550.806 129.22C552.235 130.218 553.741 131.414 555.258 132.839H555.269Z" fill="#090A89"/>
<path d="M483.195 19.9347L478.799 23.2243C478.799 23.2243 474.853 20.2965 472.347 17.2372C469.84 14.1778 468.565 11.5133 468.565 11.5133L471.83 8.22363C471.83 8.22363 473.841 12.4563 476.205 14.9454C478.568 17.4346 483.195 19.9347 483.195 19.9347Z" fill="#090A89"/>
<path d="M570.063 58.6509L571.756 63.8704C571.756 63.8704 567.7 66.6447 563.996 68.0263C560.292 69.397 557.335 69.7479 557.335 69.7479L555.268 65.592C555.268 65.592 559.94 65.0656 563.062 63.6401C566.194 62.2146 570.052 58.6509 570.052 58.6509H570.063Z" fill="#FFBB56"/>
<path d="M531.493 0.504366L536.967 0C536.967 0 538.792 4.55061 539.319 8.46527C539.847 12.3799 539.539 15.3187 539.539 15.3187L535.022 16.4152C535.022 16.4152 535.527 11.7549 534.824 8.39948C534.12 5.04406 531.482 0.493457 531.482 0.493457L531.493 0.504366Z" fill="#3079F2"/>
<path d="M464.092 87.6204L459.893 91.1622C459.893 91.1622 455.782 88.4757 453.1 85.5699C450.418 82.664 448.989 80.0761 448.989 80.0761L452.056 76.6001C452.056 76.6001 454.309 80.7121 456.815 83.0587C459.321 85.4053 464.092 87.6314 464.092 87.6314V87.6204Z" fill="#3079F2"/>
<path d="M478.744 130.898L480.437 136.117C480.437 136.117 476.381 138.892 472.677 140.273C468.972 141.644 466.015 141.995 466.015 141.995L463.949 137.839C463.949 137.839 468.62 137.313 471.742 135.887C474.875 134.462 478.733 130.898 478.733 130.898H478.744Z" fill="#B5D2F7"/>
<path d="M453.397 113.376L451.209 118.41C451.209 118.41 446.329 117.817 442.636 116.403C438.943 114.988 436.502 113.3 436.502 113.3L437.701 108.826C437.701 108.826 441.548 111.512 444.845 112.51C448.143 113.508 453.397 113.387 453.397 113.387V113.376Z" fill="#FFBB56"/>
<path d="M513.005 35.6245L517.468 38.8374C517.468 38.8374 515.841 43.4648 513.665 46.7653C511.488 50.0659 509.312 52.0726 509.312 52.0726L505.19 49.9453C505.19 49.9453 508.642 46.7654 510.323 43.7718C512.005 40.7782 513.016 35.6245 513.016 35.6245H513.005Z" fill="#B5D2F7"/>
<path d="M566.612 92.6526L570.855 96.1505C570.855 96.1505 568.931 100.668 566.546 103.815C564.161 106.962 561.853 108.827 561.853 108.827L557.874 106.436C557.874 106.436 561.523 103.486 563.402 100.613C565.271 97.7406 566.612 92.6636 566.612 92.6636V92.6526Z" fill="#3079F2"/>
<path d="M558.445 25.5918L562.182 29.6162C562.182 29.6162 559.687 33.8378 556.895 36.645C554.115 39.4521 551.586 40.9983 551.586 40.9983L547.959 38.1034C547.959 38.1034 551.971 35.658 554.202 33.0592C556.434 30.4495 558.434 25.5918 558.434 25.5918H558.445Z" fill="#090A89"/>
<path d="M521.084 132.597C520.359 133.233 519.655 133.924 518.996 134.67C517.995 135.777 517.237 137.137 516.676 138.672C514.94 143.42 515.072 149.834 515.83 155.788C515.83 155.788 514.61 153.759 512.719 150.985C512.687 149.966 512.709 148.803 512.807 147.466C513.324 140.152 514.808 136.062 516.622 133.804C518.435 131.545 519.007 126.676 519.007 126.676L520.392 128.058L521.095 132.608L521.084 132.597Z" fill="#0B62CE"/>
<path d="M550.058 176.04C548.53 180.294 525.514 199.505 525.085 199.713C525.986 198.77 541.133 182.959 541.848 182.202C546.53 177.29 548.86 174.713 546.816 167.312C547.058 167.542 551.575 171.807 550.058 176.04Z" fill="#0B62CE"/>
</svg>
