<svg width="32" height="32" viewBox="0 0 32 32" fill="none" xmlns="http://www.w3.org/2000/svg">
<g id="Student">
<g id="Student_2">
<path id="Vector" d="M2.73 8.00002L8.5 9.56002V16.29C8.50265 18.0317 9.19569 19.7013 10.4272 20.9328C11.6588 22.1643 13.3283 22.8574 15.07 22.86H16.93C18.6717 22.8574 20.3412 22.1643 21.5728 20.9328C22.8043 19.7013 23.4974 18.0317 23.5 16.29V9.56002L29.27 8.00002C29.4777 7.93944 29.6602 7.81312 29.79 7.64002C29.9198 7.46693 29.99 7.25639 29.99 7.04002C29.99 6.82365 29.9198 6.61312 29.79 6.44002C29.6602 6.26693 29.4777 6.14061 29.27 6.08002L16.27 2.08002C16.0809 2.02272 15.8791 2.02272 15.69 2.08002L2.69 6.08002C2.48342 6.1448 2.30345 6.27488 2.17712 6.4507C2.05079 6.62651 1.98493 6.83858 1.98944 7.05503C1.99395 7.27148 2.06859 7.48063 2.20213 7.65103C2.33567 7.82144 2.52091 7.9439 2.73 8.00002ZM21.5 16.29C21.4974 17.5013 21.015 18.6621 20.1586 19.5186C19.3021 20.3751 18.1412 20.8574 16.93 20.86H15.07C13.8588 20.8574 12.6979 20.3751 11.8414 19.5186C10.985 18.6621 10.5026 17.5013 10.5 16.29V10.11L15.73 11.56C15.906 11.6134 16.094 11.6134 16.27 11.56L21.5 10.11V16.29ZM16 4.05002L25.44 7.00002L16 9.56002L6.56 7.00002L16 4.05002Z" fill="#3A54DD"/>
<path id="Vector_2" d="M25.78 23.38C25.664 23.2321 25.5087 23.1198 25.3318 23.0562C25.1549 22.9925 24.9637 22.98 24.78 23.02L16 25L7.22002 23C7.03635 22.96 6.84511 22.9725 6.66823 23.0362C6.49136 23.0998 6.33601 23.2121 6.22002 23.36L2.22002 28.36C2.10395 28.5064 2.03119 28.6823 2.00998 28.8679C1.98877 29.0534 2.01996 29.2413 2.10002 29.41C2.17818 29.5839 2.30443 29.7319 2.46388 29.8364C2.62334 29.9409 2.80936 29.9977 3.00002 30H29C29.1885 29.9995 29.373 29.9457 29.5322 29.8448C29.6915 29.744 29.819 29.6002 29.9 29.43C29.9801 29.2613 30.0113 29.0734 29.9901 28.8879C29.9688 28.7023 29.8961 28.5264 29.78 28.38L25.78 23.38ZM5.08002 28L7.39002 25.11L15.78 27C15.9252 27.0299 16.0749 27.0299 16.22 27L24.61 25.13L26.92 28H5.08002Z" fill="#3A54DD"/>
</g>
</g>
</svg>
