<svg width="57" height="63" viewBox="0 0 57 63" fill="none" xmlns="http://www.w3.org/2000/svg">
<g id="User 05c">
<path id="face" d="M35.7334 33.6V36.4C35.7334 40.1333 41.1 41.7666 41.1 41.7666C41.1 41.7666 34.9167 46.4333 28.5 46.4333C22.0834 46.4333 15.9 41.7666 15.9 41.7666C15.9 41.7666 21.3089 40.1333 21.2667 36.4C21.2245 32.6666 21.2527 30.4733 21.2245 24.0772C17.8803 19.7425 18.095 16.8333 19.9236 14.7875C26.05 7.9333 42.7334 10.2666 42.7334 10.2666C42.7334 10.2666 44.2902 27.065 40.75 31.9666C39.2334 34.0666 35.7334 33.6 35.7334 33.6Z" fill="url(#paint0_linear_413_83)"/>
<path id="shade" style="mix-blend-mode:multiply" opacity="0.6" d="M35.7333 33.6C30.6 33.0167 27.5667 30.8 27.5667 30.8C29.4817 33.6332 32.4003 35.6345 35.7333 36.4V33.6Z" fill="url(#paint1_linear_413_83)"/>
<path id="body" d="M53 48.8385C55.2213 53.3551 56.5 63.7718 56.5 63.7718H0.5C0.5 63.7718 1.77913 53.354 4 48.8385C6.22087 44.323 19.19 40.1349 19.19 40.1349C21.6897 45.2666 35.4085 45.2666 37.8032 40.1333C37.8032 40.1333 50.7787 44.3219 53 48.8385Z" fill="url(#paint2_linear_413_83)"/>
<path id="buttons" d="M27.5667 57.8666C27.5667 57.682 27.6214 57.5016 27.7239 57.3481C27.8265 57.1946 27.9723 57.075 28.1428 57.0044C28.3134 56.9337 28.501 56.9152 28.6821 56.9512C28.8631 56.9873 29.0294 57.0761 29.16 57.2067C29.2905 57.3372 29.3794 57.5035 29.4154 57.6846C29.4514 57.8656 29.4329 58.0533 29.3623 58.2238C29.2916 58.3944 29.172 58.5401 29.0185 58.6427C28.865 58.7452 28.6846 58.8 28.5 58.8C28.2524 58.8 28.0151 58.7016 27.84 58.5266C27.665 58.3516 27.5667 58.1142 27.5667 57.8666ZM27.5667 53.2C27.5667 53.0154 27.6214 52.8349 27.7239 52.6814C27.8265 52.528 27.9723 52.4083 28.1428 52.3377C28.3134 52.267 28.501 52.2486 28.6821 52.2846C28.8631 52.3206 29.0294 52.4095 29.16 52.54C29.2905 52.6705 29.3794 52.8368 29.4154 53.0179C29.4514 53.1989 29.4329 53.3866 29.3623 53.5571C29.2916 53.7277 29.172 53.8735 29.0185 53.976C28.865 54.0786 28.6846 54.1333 28.5 54.1333C28.2524 54.1333 28.0151 54.035 27.84 53.8599C27.665 53.6849 27.5667 53.4475 27.5667 53.2ZM27.5667 48.5333C27.5667 48.3487 27.6214 48.1683 27.7239 48.0148C27.8265 47.8613 27.9723 47.7417 28.1428 47.671C28.3134 47.6004 28.501 47.5819 28.6821 47.6179C28.8631 47.6539 29.0294 47.7428 29.16 47.8733C29.2905 48.0039 29.3794 48.1702 29.4154 48.3512C29.4514 48.5323 29.4329 48.7199 29.3623 48.8905C29.2916 49.061 29.172 49.2068 29.0185 49.3093C28.865 49.4119 28.6846 49.4666 28.5 49.4666C28.2524 49.4666 28.0151 49.3683 27.84 49.1933C27.665 49.0182 27.5667 48.7808 27.5667 48.5333Z" fill="white"/>
<path id="hair" d="M24.1028 17.0821C23.3608 16.4448 22.4592 16.0157 21.1848 16.6779C18.1633 18.2466 20.45 24.2666 23.1333 24.2666C23.8333 24.2666 24.1815 26.4651 21.0648 28C21.0648 25.55 17.3315 19.4833 17.0048 13.9598C13.2482 12.561 14.1815 6.96405 16.7605 6.96405C16.3489 1.83351 24.5648 -0.816685 27.7461 2.12775C30.9815 -1.75002 39.1482 0.233314 39.6412 3.59751C45.2568 0.599881 48.9482 9.21665 43.69 12.5617C41.5263 13.9384 36.4648 14.4622 29.1585 14.4622C28.0555 14.4622 27.4376 14.7361 27.7461 16.1C28.3432 18.7427 26.957 20.4073 24.1028 17.0821Z" fill="url(#paint3_linear_413_83)"/>
</g>
<defs>
<linearGradient id="paint0_linear_413_83" x1="29.4871" y1="9.88379" x2="29.4871" y2="46.4333" gradientUnits="userSpaceOnUse">
<stop stop-color="#E6864E"/>
<stop offset="1" stop-color="#EB965E"/>
</linearGradient>
<linearGradient id="paint1_linear_413_83" x1="34.1898" y1="31.8528" x2="32.7595" y2="37.269" gradientUnits="userSpaceOnUse">
<stop stop-color="#E07A3F"/>
<stop offset="1" stop-color="#EB9154"/>
</linearGradient>
<linearGradient id="paint2_linear_413_83" x1="28.5" y1="40.1333" x2="28.5" y2="63.7718" gradientUnits="userSpaceOnUse">
<stop stop-color="#1D0024"/>
<stop offset="1" stop-color="#100014"/>
</linearGradient>
<linearGradient id="paint3_linear_413_83" x1="30.3628" y1="-0.000610352" x2="30.3628" y2="28" gradientUnits="userSpaceOnUse">
<stop stop-color="#1D0024"/>
<stop offset="1" stop-color="#100014"/>
</linearGradient>
</defs>
</svg>
