<svg width="574" height="633" viewBox="0 0 574 633" fill="none" xmlns="http://www.w3.org/2000/svg">
<path d="M290.511 285.489C290.511 285.489 372.023 303.43 449.454 289.75C526.885 276.057 580.931 264.04 553.414 221.441C525.897 178.829 518.111 151.845 554.402 135.008C619.25 104.894 516.681 8.45775 342.257 1.00062C165.208 -6.57343 52.2789 42.3266 120.182 104.894C156.265 138.139 83.1628 154.69 64.2894 175.113C45.4029 195.536 14.8959 231.691 92.2356 258.389C169.575 285.086 290.511 285.502 290.511 285.502V285.489Z" fill="#F2F1F0"/>
<path d="M480.416 0H285.208C274.153 0 265.19 8.9576 265.19 20.0071V192.911C265.19 203.96 274.153 212.918 285.208 212.918H480.416C491.471 212.918 500.433 203.96 500.433 192.911V20.0071C500.433 8.9576 491.471 0 480.416 0Z" fill="#92A7FF"/>
<path d="M265.19 31.3096H500.433V192.898C500.433 203.941 491.464 212.905 480.416 212.905H285.221C274.172 212.905 265.203 203.941 265.203 192.898V31.3096H265.19Z" fill="#B8C7FF"/>
<path d="M458.306 19.9551C460.079 19.9551 461.516 18.5184 461.516 16.7462C461.516 14.974 460.079 13.5374 458.306 13.5374C456.532 13.5374 455.095 14.974 455.095 16.7462C455.095 18.5184 456.532 19.9551 458.306 19.9551Z" fill="#1E56C6"/>
<path d="M469.289 19.9551C471.062 19.9551 472.5 18.5184 472.5 16.7462C472.5 14.974 471.062 13.5374 469.289 13.5374C467.516 13.5374 466.079 14.974 466.079 16.7462C466.079 18.5184 467.516 19.9551 469.289 19.9551Z" fill="#307DEF"/>
<path d="M479.545 19.9551C481.318 19.9551 482.755 18.5184 482.755 16.7462C482.755 14.974 481.318 13.5374 479.545 13.5374C477.772 13.5374 476.334 14.974 476.334 16.7462C476.334 18.5184 477.772 19.9551 479.545 19.9551Z" fill="#FFBB56"/>
<path d="M308.267 19.9551H286.651C284.883 19.9551 283.44 18.5261 283.44 16.7462C283.44 14.9794 284.87 13.5374 286.651 13.5374H308.267C310.035 13.5374 311.477 14.9664 311.477 16.7462C311.477 18.5131 310.048 19.9551 308.267 19.9551Z" fill="#B8C7FF"/>
<path d="M382.812 206.357C381.603 206.357 380.615 205.37 380.615 204.162V38.0781C380.615 36.8698 381.603 35.8826 382.812 35.8826C384.021 35.8826 385.009 36.8698 385.009 38.0781V204.162C385.009 205.37 384.021 206.357 382.812 206.357Z" fill="#92A7FF"/>
<path d="M329.324 45.0417H286.859C283.004 45.0417 279.878 48.165 279.878 52.018V55.6427C279.878 59.4957 283.004 62.6193 286.859 62.6193H329.324C333.179 62.6193 336.304 59.4957 336.304 55.6427V52.018C336.304 48.165 333.179 45.0417 329.324 45.0417Z" fill="#6780FF"/>
<path d="M360.221 115.625H286.859C283.004 115.625 279.878 118.748 279.878 122.601V126.226C279.878 130.079 283.004 133.202 286.859 133.202H360.221C364.076 133.202 367.201 130.079 367.201 126.226V122.601C367.201 118.748 364.076 115.625 360.221 115.625Z" fill="#92A7FF"/>
<path d="M478.921 45.0417H405.559C401.704 45.0417 398.579 48.165 398.579 52.018V55.6427C398.579 59.4957 401.704 62.6193 405.559 62.6193H478.921C482.776 62.6193 485.901 59.4957 485.901 55.6427V52.018C485.901 48.165 482.776 45.0417 478.921 45.0417Z" fill="#92A7FF"/>
<path d="M448.024 151.364H405.559C401.704 151.364 398.579 154.488 398.579 158.341V161.965C398.579 165.818 401.704 168.942 405.559 168.942H448.024C451.879 168.942 455.004 165.818 455.004 161.965V158.341C455.004 154.488 451.879 151.364 448.024 151.364Z" fill="#6780FF"/>
<path d="M317.794 77.0271H279.879C279.671 77.0271 279.515 76.858 279.515 76.6631C279.515 76.4681 279.684 76.2991 279.879 76.2991H317.794C318.002 76.2991 318.158 76.4681 318.158 76.6631C318.158 76.858 317.989 77.0271 317.794 77.0271Z" fill="#92A7FF"/>
<path d="M331.534 89.486H279.879C279.671 89.486 279.515 89.317 279.515 89.122C279.515 88.9271 279.684 88.7581 279.879 88.7581H331.534C331.742 88.7581 331.898 88.9271 331.898 89.122C331.898 89.317 331.729 89.486 331.534 89.486Z" fill="#92A7FF"/>
<path d="M352.604 101.945H279.879C279.671 101.945 279.515 101.776 279.515 101.581C279.515 101.386 279.684 101.217 279.879 101.217H352.604C352.812 101.217 352.968 101.386 352.968 101.581C352.968 101.776 352.799 101.945 352.604 101.945Z" fill="#92A7FF"/>
<path d="M317.794 149.689H279.879C279.671 149.689 279.515 149.52 279.515 149.325C279.515 149.13 279.684 148.961 279.879 148.961H317.794C318.002 148.961 318.158 149.13 318.158 149.325C318.158 149.52 317.989 149.689 317.794 149.689Z" fill="#6780FF"/>
<path d="M331.534 162.147H279.879C279.671 162.147 279.515 161.978 279.515 161.783C279.515 161.588 279.684 161.419 279.879 161.419H331.534C331.742 161.419 331.898 161.588 331.898 161.783C331.898 161.978 331.729 162.147 331.534 162.147Z" fill="#6780FF"/>
<path d="M352.604 174.607H279.879C279.671 174.607 279.515 174.438 279.515 174.243C279.515 174.048 279.684 173.879 279.879 173.879H352.604C352.812 173.879 352.968 174.048 352.968 174.243C352.968 174.438 352.799 174.607 352.604 174.607Z" fill="#6780FF"/>
<path d="M436.508 77.0271H398.592C398.384 77.0271 398.228 76.858 398.228 76.6631C398.228 76.4681 398.397 76.2991 398.592 76.2991H436.508C436.716 76.2991 436.872 76.4681 436.872 76.6631C436.872 76.858 436.703 77.0271 436.508 77.0271Z" fill="#6780FF"/>
<path d="M450.247 89.486H398.592C398.384 89.486 398.228 89.317 398.228 89.122C398.228 88.9271 398.397 88.7581 398.592 88.7581H450.247C450.455 88.7581 450.611 88.9271 450.611 89.122C450.611 89.317 450.442 89.486 450.247 89.486Z" fill="#6780FF"/>
<path d="M471.304 101.945H398.579C398.371 101.945 398.215 101.776 398.215 101.581C398.215 101.386 398.384 101.217 398.579 101.217H471.304C471.512 101.217 471.668 101.386 471.668 101.581C471.668 101.776 471.499 101.945 471.304 101.945Z" fill="#6780FF"/>
<path d="M436.508 114.404H398.592C398.384 114.404 398.228 114.235 398.228 114.04C398.228 113.845 398.397 113.676 398.592 113.676H436.508C436.716 113.676 436.872 113.845 436.872 114.04C436.872 114.235 436.703 114.404 436.508 114.404Z" fill="#6780FF"/>
<path d="M450.247 126.85H398.592C398.384 126.85 398.228 126.681 398.228 126.486C398.228 126.291 398.397 126.122 398.592 126.122H450.247C450.455 126.122 450.611 126.291 450.611 126.486C450.611 126.681 450.442 126.85 450.247 126.85Z" fill="#6780FF"/>
<path d="M471.304 139.308H398.579C398.371 139.308 398.215 139.14 398.215 138.945C398.215 138.75 398.384 138.581 398.579 138.581H471.304C471.512 138.581 471.668 138.75 471.668 138.945C471.668 139.14 471.499 139.308 471.304 139.308Z" fill="#6780FF"/>
<path d="M331.534 187.052H279.879C279.671 187.052 279.515 186.883 279.515 186.688C279.515 186.493 279.684 186.324 279.879 186.324H331.534C331.742 186.324 331.898 186.493 331.898 186.688C331.898 186.883 331.729 187.052 331.534 187.052Z" fill="#6780FF"/>
<path d="M352.604 199.511H279.879C279.671 199.511 279.515 199.342 279.515 199.147C279.515 198.952 279.684 198.783 279.879 198.783H352.604C352.812 198.783 352.968 198.952 352.968 199.147C352.968 199.342 352.799 199.511 352.604 199.511Z" fill="#6780FF"/>
<path d="M450.247 184.987H398.592C398.384 184.987 398.228 184.818 398.228 184.623C398.228 184.428 398.397 184.259 398.592 184.259H450.247C450.455 184.259 450.611 184.428 450.611 184.623C450.611 184.818 450.442 184.987 450.247 184.987Z" fill="#92A7FF"/>
<path d="M471.304 197.433H398.579C398.371 197.433 398.215 197.264 398.215 197.069C398.215 196.874 398.384 196.705 398.579 196.705H471.304C471.512 196.705 471.668 196.874 471.668 197.069C471.668 197.264 471.499 197.433 471.304 197.433Z" fill="#92A7FF"/>
<path d="M275.719 122.341H175.58L213.353 69.05H238.895C239.181 69.3878 239.454 69.7514 239.714 70.1281L275.732 122.341H275.719Z" fill="#6489F9"/>
<path d="M235.399 69.05H217.279L223.284 60.6445H230.316C230.394 60.7485 230.472 60.8654 230.537 60.9823L235.399 69.05Z" fill="#1E56C6"/>
<path d="M239.727 122.341C239.727 130.11 233.423 136.411 225.65 136.411C217.877 136.411 211.573 130.11 211.573 122.341H239.727Z" fill="#F99F35"/>
<path d="M227.067 60.6576H225.598V4.93687L227.067 4.75513V60.6576Z" fill="#6489F9"/>
<path d="M155.212 507.994C155.212 507.994 -67.11 559.259 46.9757 573.913C161.074 588.554 281.971 574.641 254.129 590.023C226.287 605.405 183.12 621.618 239.48 629.569C358.518 646.354 608.839 598.129 537.712 559.259C426.668 498.588 155.212 507.994 155.212 507.994Z" fill="#E0E0E0"/>
<path d="M213.353 69.05L247.396 122.341H275.719L238.895 69.05H213.353Z" fill="#588CF4"/>
<path d="M384.736 553.451C374.805 553.153 366.226 545.592 356.295 540.356C346.365 535.108 340.879 522.298 340.879 522.298C340.879 522.298 349.783 519.388 351.837 519.102C353.41 518.881 365.316 520.869 370.84 521.817C372.556 522.116 373.648 522.311 373.648 522.311C373.648 522.311 374.311 522.493 375.455 522.844C380.329 524.364 393.821 529.092 400.489 536.874C408.704 546.475 394.666 553.75 384.722 553.464L384.736 553.451Z" fill="#173BA4"/>
<path d="M364.51 517.088L365.732 522.181C365.732 522.181 361.95 523.896 356.088 524.013C350.225 524.13 352.058 515.594 352.058 515.594L358.531 512.788L364.523 517.101L364.51 517.088Z" fill="#6780FF"/>
<path d="M315.715 270.094C315.715 270.094 318.873 275.836 320.914 283.306C322.955 290.776 325.801 306.86 325.801 306.86V312.303L309.151 311.615C309.151 311.615 300.897 287.437 296.373 283.475C291.85 279.513 287.704 271.289 287.704 271.289L297.478 264.052L315.728 270.081L315.715 270.094Z" fill="#6780FF"/>
<path d="M247.396 324.073H136.989L121.846 169.721C121.846 169.721 137.73 174.541 140.108 198.315C142.227 219.44 134.792 226.052 134.792 226.052L240.39 223.116L247.383 324.06L247.396 324.073Z" fill="#307DEF"/>
<path d="M145.295 324.073H136.989L121.846 169.721C121.846 169.721 137.73 174.541 140.108 198.315C142.227 219.44 134.792 226.052 134.792 226.052L145.295 324.06V324.073Z" fill="#1E56C6"/>
<path d="M140.108 198.329C137.73 174.554 121.846 169.734 121.846 169.734H236.698L240.403 223.129L134.805 226.065C134.805 226.065 142.24 219.466 140.121 198.329H140.108Z" fill="#B8C7FF"/>
<path d="M317.431 267.378C317.431 267.378 313.713 274.588 306.018 278.98C297.478 283.851 286.56 286.71 286.56 286.71L280.061 269.496C280.061 269.496 277.084 261.818 277.071 261.805C277.071 261.805 275.55 264.715 274.211 267.3C273.626 268.418 273.08 269.496 272.691 270.223C271.417 272.666 272.054 273.575 272.548 277.057C273.042 280.539 272.119 284.202 272.119 284.202C272.119 284.202 268.882 310.263 268.141 311.484C267.413 312.706 263.007 324.06 263.007 324.06H169.952L176.542 284.163C176.542 284.163 193.882 285.372 180.078 286.346C166.287 287.32 156.148 283.54 156.148 283.54C156.148 283.54 156.018 277.927 161.763 258.388C167.509 238.862 182.587 222.441 182.587 222.441C182.587 222.441 193.765 215.854 205.49 211.632C217.214 207.423 227.236 206.331 227.236 206.331C227.236 206.331 263.202 214.919 280.061 221.297C296.919 227.676 317.418 267.365 317.418 267.365L317.431 267.378Z" fill="#1E56C6"/>
<path d="M248.501 237.81C248.501 237.81 248.553 239.798 249.528 243.76C250.294 246.891 250.152 250.334 243.6 257.284C238.05 263.182 234.112 264.066 234.112 264.066C234.112 264.066 210.819 252.308 213.015 235.277C215.212 218.245 221.074 211.476 221.074 211.476C221.074 211.476 227.119 208.085 231.876 200.304C236.633 192.522 251.568 210.19 251.568 210.19L248.501 237.81Z" fill="#5E7DFC"/>
<path d="M296.36 193.223C296.36 193.223 292.084 208.605 278.527 222.999C264.97 237.407 249.944 238.745 249.944 238.745C249.944 238.745 240.663 234.107 238.466 218.478C236.269 202.85 240.052 196.146 240.052 196.146C240.052 196.146 272.171 181.803 272.717 181.621C273.262 181.439 296.347 193.223 296.347 193.223H296.36Z" fill="#6780FF"/>
<path d="M195.195 284.176C195.195 284.176 199.159 272.198 201.356 263.533C203.553 254.868 205.022 250.593 205.022 250.593C205.022 250.593 206.49 255.959 205.022 264.39C203.618 272.458 195.195 284.176 195.195 284.176Z" fill="#173BA4"/>
<path d="M364.146 254.127H457.201L435.221 324.074H339.722L364.146 254.127Z" fill="#307DEF"/>
<path d="M339.723 324.074H294.723V316.668C294.723 315.096 295.996 313.823 297.569 313.823H338.137L359.935 251.581H453.912L457.214 254.14H364.159L339.736 324.087L339.723 324.074Z" fill="#1E56C6"/>
<path d="M314.805 313.823C314.805 313.823 315.533 306.859 325.801 306.859C338.137 306.859 338.137 313.823 338.137 313.823H314.805Z" fill="#B8C7FF"/>
<path d="M316.079 310.835C316.079 310.835 310.697 310.575 309.151 311.627C307.604 312.68 307.864 313.823 307.864 313.823H316.079V310.835Z" fill="#92A7FF"/>
<path d="M213.561 299.078L222.543 264.377L263.397 285.618L307.838 272.627L293.033 324.372L255.702 331.024L207.335 322.476L213.561 299.078Z" fill="#FFBB56"/>
<path d="M222.543 264.377L223.232 264.182C224.233 263.897 225.299 264.001 226.222 264.468L263.267 283.306L303.847 271.64C305.264 271.237 306.772 271.614 307.838 272.627L263.384 285.631L222.53 264.39L222.543 264.377Z" fill="#F99F35"/>
<path d="M226.898 264.819C228.601 263.858 230.667 263.819 232.409 264.689L263.267 280.188L298.167 270.211C300.104 269.652 302.184 270.133 303.678 271.471L303.847 271.627L263.267 283.293L226.898 264.806V264.819Z" fill="#F9BE78"/>
<path d="M433.882 290.204H431.321C430.71 290.204 430.216 289.711 430.216 289.1C430.216 288.489 430.71 287.996 431.321 287.996H433.882C434.493 287.996 434.987 288.489 434.987 289.1C434.987 289.711 434.493 290.204 433.882 290.204Z" fill="#1E56C6"/>
<path d="M475.047 290.204H469.9C469.289 290.204 468.795 289.711 468.795 289.1C468.795 288.489 469.289 287.996 469.9 287.996H475.047C475.658 287.996 476.152 288.489 476.152 289.1C476.152 289.711 475.658 290.204 475.047 290.204ZM464.753 290.204H459.606C458.995 290.204 458.501 289.711 458.501 289.1C458.501 288.489 458.995 287.996 459.606 287.996H464.753C465.364 287.996 465.858 288.489 465.858 289.1C465.858 289.711 465.364 290.204 464.753 290.204ZM454.458 290.204H449.311C448.7 290.204 448.206 289.711 448.206 289.1C448.206 288.489 448.7 287.996 449.311 287.996H454.458C455.069 287.996 455.563 288.489 455.563 289.1C455.563 289.711 455.069 290.204 454.458 290.204ZM444.164 290.204H439.016C438.405 290.204 437.911 289.711 437.911 289.1C437.911 288.489 438.405 287.996 439.016 287.996H444.164C444.775 287.996 445.268 288.489 445.268 289.1C445.268 289.711 444.775 290.204 444.164 290.204Z" fill="#1E56C6"/>
<path d="M483.86 290.204H480.195C479.584 290.204 479.09 289.71 479.09 289.1C479.09 288.489 479.584 287.996 480.195 287.996H481.664V286.528C481.664 285.917 482.157 285.423 482.768 285.423C483.379 285.423 483.873 285.917 483.873 286.528V290.191L483.86 290.204Z" fill="#1E56C6"/>
<path d="M482.756 282.514C482.145 282.514 481.651 282.02 481.651 281.409V276.291C481.651 275.68 482.145 275.186 482.756 275.186C483.366 275.186 483.86 275.68 483.86 276.291V281.409C483.86 282.02 483.366 282.514 482.756 282.514ZM482.756 272.276C482.145 272.276 481.651 271.782 481.651 271.172V266.053C481.651 265.443 482.145 264.949 482.756 264.949C483.366 264.949 483.86 265.443 483.86 266.053V271.172C483.86 271.782 483.366 272.276 482.756 272.276ZM482.756 262.039C482.145 262.039 481.651 261.545 481.651 260.935V255.816C481.651 255.205 482.145 254.712 482.756 254.712C483.366 254.712 483.86 255.205 483.86 255.816V260.935C483.86 261.545 483.366 262.039 482.756 262.039ZM482.756 251.802C482.145 251.802 481.651 251.308 481.651 250.697V245.579C481.651 244.968 482.145 244.474 482.756 244.474C483.366 244.474 483.86 244.968 483.86 245.579V250.697C483.86 251.308 483.366 251.802 482.756 251.802ZM482.756 241.564C482.145 241.564 481.651 241.071 481.651 240.46V235.341C481.651 234.731 482.145 234.237 482.756 234.237C483.366 234.237 483.86 234.731 483.86 235.341V240.46C483.86 241.071 483.366 241.564 482.756 241.564ZM482.756 231.327C482.145 231.327 481.651 230.833 481.651 230.223V225.104C481.651 224.493 482.145 224 482.756 224C483.366 224 483.86 224.493 483.86 225.104V230.223C483.86 230.833 483.366 231.327 482.756 231.327ZM482.756 221.09C482.145 221.09 481.651 220.596 481.651 219.985V214.867C481.651 214.256 482.145 213.762 482.756 213.762C483.366 213.762 483.86 214.256 483.86 214.867V219.985C483.86 220.596 483.366 221.09 482.756 221.09ZM482.756 210.852C482.145 210.852 481.651 210.359 481.651 209.748V204.629C481.651 204.019 482.145 203.525 482.756 203.525C483.366 203.525 483.86 204.019 483.86 204.629V209.748C483.86 210.359 483.366 210.852 482.756 210.852ZM482.756 200.615C482.145 200.615 481.651 200.121 481.651 199.511V194.392C481.651 193.782 482.145 193.288 482.756 193.288C483.366 193.288 483.86 193.782 483.86 194.392V199.511C483.86 200.121 483.366 200.615 482.756 200.615Z" fill="#1E56C6"/>
<path d="M482.756 190.352C482.145 190.352 481.651 189.858 481.651 189.247V186.688C481.651 186.078 482.145 185.584 482.756 185.584C483.366 185.584 483.86 186.078 483.86 186.688V189.247C483.86 189.858 483.366 190.352 482.756 190.352Z" fill="#1E56C6"/>
<path d="M311.659 174.489C311.659 174.489 309.19 191.456 296.36 193.223C283.531 194.99 275.108 185.415 268.024 189.313C259.38 194.081 261.863 198.225 260.446 202.551C259.042 206.89 254.896 209.384 254.896 209.384C254.896 209.384 256.846 203.265 254.896 200.797C252.946 198.329 244.887 197.913 244.601 204.5C244.328 211.086 244.9 212.204 241.768 212.827C235.814 214.022 222.816 200.693 228.769 182.557C234.723 164.434 248.735 164.395 248.735 164.395C248.735 164.395 256.495 151.247 275.355 155.002C292.24 158.354 290.745 170.501 301.365 177.828C306.031 181.05 311.659 174.476 311.659 174.476V174.489Z" fill="#090A89"/>
<path d="M159.463 284.527C159.463 284.527 154.211 299.532 168.133 307.223C182.054 314.914 228.029 318.942 238.843 318.942H258.444C258.444 318.942 267.426 320.41 274.016 320.774C280.607 321.137 285.988 317.474 286.469 309.419C286.963 301.364 285.741 297.09 274.861 299.532C263.995 301.975 273.133 296.051 269.22 295.96C266.347 295.895 261.005 303.832 258.431 305.301C255.871 306.769 234.983 301.754 217.708 298.805C201.902 296.103 200.173 296.414 192.972 293.439C190.191 292.283 191.503 285.034 191.503 285.034L159.437 284.54L159.463 284.527Z" fill="#6780FF"/>
<path d="M279.151 351.407C279.151 351.407 307.968 359.592 325.801 388.875C343.635 418.171 368.527 516.439 368.527 516.439C368.527 516.439 348.028 519.959 338.748 518.868C329.467 517.764 309.67 421.834 288.548 414.507C267.426 407.18 247.396 410.882 247.396 410.882L257.586 363.97L279.138 351.394L279.151 351.407Z" fill="#F99F35"/>
<path d="M247.188 358.124C247.188 358.124 274.913 359.592 292.734 388.888C310.567 418.184 335.459 516.452 335.459 516.452C335.459 516.452 314.961 519.972 305.68 518.881C296.399 517.777 276.603 421.847 255.481 414.52C234.359 407.193 214.328 410.896 214.328 410.896L224.519 363.983L247.175 358.124H247.188Z" fill="#FFBB56"/>
<path d="M375.468 522.831C375.468 522.831 370.489 529.495 367.071 530.352C363.652 531.197 363.652 527.91 367.071 526.078C370.489 524.247 370.84 521.817 370.84 521.817C372.556 522.103 373.648 522.298 373.648 522.298C373.648 522.298 374.311 522.48 375.455 522.831H375.468Z" fill="#B8C7FF"/>
<path d="M110.732 528.91C110.732 553.737 98.8907 561.688 88.5831 563.897C87.6862 564.078 86.8153 564.234 85.9574 564.338C85.8144 564.351 85.6844 564.377 85.5415 564.39C85.2815 564.429 85.0215 564.455 84.7616 564.481C84.5536 564.494 84.3196 564.52 84.0987 564.546C83.9817 564.546 83.8647 564.572 83.7347 564.572C83.3968 564.598 83.0328 564.611 82.6559 564.624C82.4479 564.624 82.2139 564.637 81.9929 564.65C81.382 564.663 80.7971 564.663 80.2252 564.65C80.0042 564.65 79.7832 564.637 79.5623 564.624C79.1983 564.624 78.8344 564.598 78.4834 564.572C78.3534 564.572 78.2364 564.559 78.1195 564.546C77.8855 564.52 77.6775 564.507 77.4565 564.481C77.1706 564.455 76.9106 564.429 76.6637 564.39C76.5207 564.39 76.3907 564.351 76.2477 564.338C75.3768 564.221 74.5059 564.078 73.6091 563.897C63.3014 561.675 51.46 553.737 51.46 528.91C51.46 502.836 66.551 504.512 66.733 484.519C66.85 472.229 58.7001 461.004 54.8266 456.353C54.0857 455.456 54.7096 454.105 55.8924 454.105H106.287C107.457 454.105 108.093 455.469 107.353 456.353C103.479 461.004 95.3422 472.229 95.4461 484.519C95.6281 504.525 110.719 502.836 110.719 528.91H110.732Z" fill="#FFBB56"/>
<path d="M80.9401 434.072C80.7711 433.812 80.5892 433.539 80.3942 433.279C80.3812 433.267 80.3682 433.241 80.3552 433.228C79.0034 431.318 77.4826 429.473 75.7928 427.732C75.4289 427.368 75.0519 426.992 74.675 426.628C72.9982 425.03 71.1524 423.536 69.1247 422.159C64.9133 419.34 59.9349 417.079 53.9947 415.741C51.928 415.26 49.7573 414.91 47.4696 414.663C23.5008 412.194 0.545866 440.451 -6.10352e-05 441.139C0.636854 440.906 28.5701 430.344 45.8578 438.606C54.5666 442.776 60.0519 448.415 63.4834 454.105H89.532C88.0242 447.934 85.4245 440.659 80.9271 434.072H80.9401ZM56.4904 430.59C46.0138 421.977 27.7382 428.148 27.5563 428.213C27.3743 428.278 27.1793 428.174 27.1143 427.992C27.0493 427.81 27.1533 427.615 27.3353 427.55C27.5173 427.485 46.1568 421.184 56.9323 430.032C60.8578 433.254 63.6264 436.605 65.5632 439.554C65.5502 439.983 65.5372 440.412 65.5372 440.841C63.5744 437.632 60.6888 434.033 56.4904 430.577V430.59Z" fill="#1E56C6"/>
<path d="M95.0563 437.203C93.2106 439.399 91.6508 441.556 90.5199 443.232C90.5719 442.712 90.6499 442.205 90.7149 441.685C91.8587 440.035 93.3015 438.113 94.9653 436.177C94.8093 434.358 94.5494 432.513 94.1854 430.656C93.6135 427.81 92.7686 424.966 91.5988 422.159C90.7019 420.003 89.597 417.885 88.2712 415.819C88.1412 415.612 88.0112 415.404 87.8683 415.196C85.8795 412.195 83.4099 409.311 80.3683 406.608C78.0806 404.569 75.4679 402.646 72.4653 400.84C51.5771 388.277 18.2236 404.66 18.2236 404.66C18.2236 404.66 39.8917 406.206 54.0078 415.741C56.5944 417.495 58.9341 419.509 60.8319 421.835C63.2626 424.81 65.1343 427.759 66.5381 430.669C70.0996 437.944 70.7755 444.869 70.2686 450.676C70.2296 451.065 70.2036 451.442 70.1516 451.819C70.0606 452.598 69.9567 453.365 69.8137 454.105H93.8475C94.8223 449.143 95.4592 443.309 95.0433 437.203H95.0563ZM46.1698 404.166C45.9749 404.153 45.8319 403.984 45.8579 403.789C45.8709 403.594 46.0399 403.464 46.2348 403.464C46.4168 403.49 64.5754 405.257 71.3865 417.599C71.2435 417.833 71.1135 418.067 70.9835 418.314C70.9575 418.249 70.9185 418.184 70.8795 418.106C64.3284 405.933 46.3518 404.179 46.1698 404.153V404.166Z" fill="#256DD8"/>
<path d="M113.241 414.676C110.953 414.923 108.769 415.274 106.703 415.754C100.788 417.092 95.7971 419.34 91.5857 422.172C87.5042 424.914 84.1637 428.213 81.434 431.76C81.0831 432.215 80.7451 432.682 80.4202 433.137C80.3942 433.163 80.3812 433.202 80.3552 433.228C75.4938 440.062 72.7382 447.675 71.1784 454.105H97.2269C100.645 448.415 106.144 442.777 114.853 438.607C132.14 430.344 160.074 440.906 160.697 441.14C160.152 440.464 137.197 412.208 113.228 414.663L113.241 414.676ZM137.041 429.643C136.976 429.824 136.768 429.902 136.586 429.837C136.417 429.772 119.597 423.108 107.366 427.369C102.842 428.941 98.4488 433.137 95.0562 437.19C93.2105 439.386 91.6507 441.556 90.5198 443.232C90.5718 442.712 90.6498 442.205 90.7148 441.685C91.8586 440.035 93.3015 438.113 94.9652 436.177C98.3448 432.241 102.634 428.278 107.145 426.719C119.623 422.367 136.677 429.123 136.846 429.188C137.028 429.253 137.106 429.461 137.041 429.643Z" fill="#256DD8"/>
<path d="M142.487 404.673C142.487 404.673 120.832 406.219 106.703 415.754C104.116 417.508 101.789 419.522 99.8785 421.848C97.4608 424.81 95.5891 427.772 94.1723 430.669C92.3135 434.475 91.2477 438.178 90.7017 441.685C90.6237 442.218 90.5588 442.725 90.5068 443.245C90.0648 447.22 90.3248 450.91 90.8837 454.118H66.8499C66.07 450.156 65.5111 445.635 65.5241 440.867C65.5241 440.438 65.5241 440.01 65.5501 439.581C65.6281 436.671 65.927 433.683 66.5379 430.682C67.1099 427.837 67.9418 424.979 69.1376 422.172C69.6835 420.886 70.2945 419.6 70.9834 418.327C71.1133 418.093 71.2433 417.859 71.3863 417.612C73.57 413.754 76.5076 410.038 80.3681 406.621C82.6558 404.582 85.2685 402.659 88.2711 400.853C109.159 388.29 142.5 404.673 142.5 404.673H142.487Z" fill="#2D82EA"/>
<path d="M65.5503 439.568C65.5373 439.997 65.5243 440.425 65.5243 440.854C63.5615 437.645 60.6759 434.047 56.4775 430.591C46.0009 421.978 27.7253 428.148 27.5434 428.213C27.3614 428.278 27.1664 428.174 27.1014 427.993C27.0364 427.811 27.1404 427.616 27.3224 427.551C27.5044 427.486 46.1439 421.185 56.9194 430.032C60.8449 433.254 63.6135 436.606 65.5503 439.555V439.568Z" fill="#F2F1F0"/>
<path d="M71.3863 417.612C71.2433 417.846 71.1134 418.08 70.9834 418.327C70.9574 418.262 70.9184 418.197 70.8794 418.119C64.3283 405.946 46.3517 404.192 46.1697 404.166C45.9747 404.153 45.8317 403.984 45.8577 403.789C45.8707 403.594 46.0397 403.464 46.2347 403.464C46.4167 403.49 64.5752 405.257 71.3863 417.599V417.612Z" fill="#F2F1F0"/>
<path d="M79.0685 448.597C78.8736 448.597 78.7176 448.441 78.7176 448.246C78.7176 448.025 78.6916 426.135 88.5833 414.286C99.9827 400.645 121.963 403.438 122.184 403.464C122.379 403.49 122.509 403.659 122.483 403.854C122.457 404.049 122.288 404.192 122.093 404.153C121.872 404.127 100.269 401.386 89.1292 414.728C79.4065 426.368 79.4325 448.025 79.4325 448.233C79.4325 448.428 79.2765 448.584 79.0815 448.584L79.0685 448.597Z" fill="#F2F1F0"/>
<path d="M137.041 429.643C136.976 429.825 136.768 429.902 136.586 429.837C136.417 429.772 119.597 423.108 107.366 427.369C102.842 428.941 98.4489 433.137 95.0564 437.191C93.2106 439.386 91.6508 441.556 90.52 443.232C90.572 442.712 90.6499 442.205 90.7149 441.686C91.8588 440.036 93.3016 438.113 94.9654 436.177C98.3449 432.241 102.634 428.279 107.145 426.72C119.623 422.367 136.677 429.123 136.846 429.188C137.028 429.253 137.106 429.461 137.041 429.643Z" fill="#F2F1F0"/>
<path d="M467.638 333.96C467.638 340.975 465.26 342.742 465.26 342.742H98.8907C98.8907 342.742 96.512 340.975 96.512 333.96C96.512 326.087 98.8907 324.073 98.8907 324.073H465.26C465.26 324.073 467.638 326.087 467.638 333.96Z" fill="#B8C7FF"/>
<path d="M281.828 342.742H114.762V560.493H281.828V342.742Z" fill="#92A7FF"/>
<path d="M449.389 342.742H431.308V560.493H449.389V342.742Z" fill="#92A7FF"/>
<path d="M358.518 483.843H281.828V560.493H358.518V483.843Z" fill="#1E56C6"/>
<path d="M330.806 522.181H309.554C307.734 522.181 306.252 520.7 306.252 518.881C306.252 517.062 307.734 515.581 309.554 515.581H330.806C332.626 515.581 334.107 517.062 334.107 518.881C334.107 520.7 332.626 522.181 330.806 522.181Z" fill="#B8C7FF"/>
<path d="M365.225 407.193H288.535V483.843H365.225V407.193Z" fill="#307DEF"/>
<path d="M337.513 445.518H316.261C314.441 445.518 312.959 444.037 312.959 442.218C312.959 440.399 314.441 438.918 316.261 438.918H337.513C339.333 438.918 340.814 440.399 340.814 442.218C340.814 444.037 339.333 445.518 337.513 445.518Z" fill="#B8C7FF"/>
<path d="M274.9 351.407H121.69V551.1H274.9V351.407Z" fill="#6489F9"/>
</svg>
