<svg width="32" height="32" viewBox="0 0 32 32" fill="none" xmlns="http://www.w3.org/2000/svg">
<g id="Quiz">
<g id="Quiz_2">
<path id="Vector" d="M23 2H9C8.20435 2 7.44129 2.31607 6.87868 2.87868C6.31607 3.44129 6 4.20435 6 5V27C6 27.7956 6.31607 28.5587 6.87868 29.1213C7.44129 29.6839 8.20435 30 9 30H23C23.7956 30 24.5587 29.6839 25.1213 29.1213C25.6839 28.5587 26 27.7956 26 27V5C26 4.20435 25.6839 3.44129 25.1213 2.87868C24.5587 2.31607 23.7956 2 23 2ZM9 4H23C23.2652 4 23.5196 4.10536 23.7071 4.29289C23.8946 4.48043 24 4.73478 24 5V17H8V5C8 4.73478 8.10536 4.48043 8.29289 4.29289C8.48043 4.10536 8.73478 4 9 4ZM23 28H9C8.73478 28 8.48043 27.8946 8.29289 27.7071C8.10536 27.5196 8 27.2652 8 27V19H24V27C24 27.2652 23.8946 27.5196 23.7071 27.7071C23.5196 27.8946 23.2652 28 23 28Z" fill="#3A54DD"/>
<path id="Vector_2" d="M21.71 21.29C21.617 21.1963 21.5064 21.1219 21.3846 21.0711C21.2627 21.0203 21.132 20.9942 21 20.9942C20.868 20.9942 20.7373 21.0203 20.6154 21.0711C20.4935 21.1219 20.3829 21.1963 20.29 21.29L19.52 22.07L18.75 21.29C18.5617 21.1017 18.3063 20.9959 18.04 20.9959C17.7737 20.9959 17.5183 21.1017 17.33 21.29C17.1417 21.4783 17.0359 21.7337 17.0359 22C17.0359 22.2663 17.1417 22.5217 17.33 22.71L18.11 23.48L17.33 24.25C17.2362 24.343 17.1619 24.4536 17.1111 24.5754C17.0603 24.6973 17.0342 24.828 17.0342 24.96C17.0342 25.092 17.0603 25.2227 17.1111 25.3446C17.1619 25.4664 17.2362 25.577 17.33 25.67C17.5023 25.8624 17.7424 25.9807 18 26C18.1316 26.0008 18.262 25.9755 18.3839 25.9258C18.5057 25.876 18.6165 25.8027 18.71 25.71L19.48 24.93L20.25 25.71C20.3429 25.8037 20.4535 25.8781 20.5754 25.9289C20.6973 25.9797 20.828 26.0058 20.96 26.0058C21.092 26.0058 21.2227 25.9797 21.3446 25.9289C21.4664 25.8781 21.577 25.8037 21.67 25.71C21.7637 25.617 21.8381 25.5064 21.8889 25.3846C21.9396 25.2627 21.9658 25.132 21.9658 25C21.9658 24.868 21.9396 24.7373 21.8889 24.6154C21.8381 24.4936 21.7637 24.383 21.67 24.29L20.89 23.52L21.67 22.75C21.7725 22.6592 21.8553 22.5484 21.9132 22.4243C21.9711 22.3002 22.003 22.1656 22.0067 22.0287C22.0105 21.8918 21.9861 21.7556 21.935 21.6285C21.884 21.5015 21.8074 21.3863 21.71 21.29Z" fill="#3A54DD"/>
<path id="Vector_3" d="M13.17 21.45L12.12 23L11.89 22.54C11.7598 22.3237 11.5526 22.1646 11.31 22.0947C11.0673 22.0248 10.8073 22.0493 10.5819 22.1632C10.3566 22.2771 10.1827 22.4721 10.0952 22.7089C10.0076 22.9457 10.0129 23.2069 10.11 23.44L11.11 25.44C11.1882 25.5962 11.306 25.7292 11.4517 25.8257C11.5973 25.9222 11.7656 25.9788 11.94 25.99H12C12.1647 25.9892 12.3266 25.9476 12.4714 25.8691C12.6162 25.7906 12.7394 25.6776 12.83 25.54L14.83 22.54C14.9478 22.3205 14.9793 22.0648 14.9185 21.8232C14.8577 21.5816 14.7088 21.3714 14.5011 21.2337C14.2934 21.0961 14.0418 21.041 13.7956 21.0791C13.5494 21.1173 13.3263 21.246 13.17 21.44V21.45Z" fill="#3A54DD"/>
<path id="Vector_4" d="M11 11H14C14.2652 11 14.5196 10.8946 14.7071 10.7071C14.8946 10.5196 15 10.2652 15 10V7C15 6.73478 14.8946 6.48043 14.7071 6.29289C14.5196 6.10536 14.2652 6 14 6H11C10.7348 6 10.4804 6.10536 10.2929 6.29289C10.1054 6.48043 10 6.73478 10 7V10C10 10.2652 10.1054 10.5196 10.2929 10.7071C10.4804 10.8946 10.7348 11 11 11ZM12 8H13V9H12V8Z" fill="#3A54DD"/>
<path id="Vector_5" d="M11 15H21C21.2652 15 21.5196 14.8946 21.7071 14.7071C21.8946 14.5196 22 14.2652 22 14C22 13.7348 21.8946 13.4804 21.7071 13.2929C21.5196 13.1054 21.2652 13 21 13H11C10.7348 13 10.4804 13.1054 10.2929 13.2929C10.1054 13.4804 10 13.7348 10 14C10 14.2652 10.1054 14.5196 10.2929 14.7071C10.4804 14.8946 10.7348 15 11 15Z" fill="#3A54DD"/>
<path id="Vector_6" d="M18 8H21C21.2652 8 21.5196 7.89464 21.7071 7.70711C21.8946 7.51957 22 7.26522 22 7C22 6.73478 21.8946 6.48043 21.7071 6.29289C21.5196 6.10536 21.2652 6 21 6H18C17.7348 6 17.4804 6.10536 17.2929 6.29289C17.1054 6.48043 17 6.73478 17 7C17 7.26522 17.1054 7.51957 17.2929 7.70711C17.4804 7.89464 17.7348 8 18 8Z" fill="#3A54DD"/>
<path id="Vector_7" d="M18 11H21C21.2652 11 21.5196 10.8946 21.7071 10.7071C21.8946 10.5196 22 10.2652 22 10C22 9.73478 21.8946 9.48043 21.7071 9.29289C21.5196 9.10536 21.2652 9 21 9H18C17.7348 9 17.4804 9.10536 17.2929 9.29289C17.1054 9.48043 17 9.73478 17 10C17 10.2652 17.1054 10.5196 17.2929 10.7071C17.4804 10.8946 17.7348 11 18 11Z" fill="#3A54DD"/>
</g>
</g>
</svg>
