<svg width="56" height="63" viewBox="0 0 56 63" fill="none" xmlns="http://www.w3.org/2000/svg">
<g id="User 07b">
<g id="Group 10">
<g id="Group 11">
<g id="Group 11_2">
<g id="Group 2">
<g id="Group 14">
<g id="Path 48">
<path id="Combined Shape" d="M40.8334 41.9496C36.5557 45.0607 32.2778 47.5496 28.0001 47.5496C23.7224 47.5496 19.4445 45.0607 15.1667 41.9496C18.6927 40.8763 20.4816 39.2741 20.5334 37.143C20.5334 36.7631 20.5306 36.2236 20.5281 35.2107C20.5281 35.0499 20.5277 34.8851 20.5269 34.7165C20.5199 32.0005 20.5085 28.4165 20.4924 24.7765C17.1482 20.4419 18.3767 15.3601 19.4246 15.4868C20.7094 15.6432 31.8401 5.08063 33.9751 4.53906C36.1101 3.9975 41.5334 5.74586 42.4668 10.6167C43.4001 15.4875 43.7902 27.7651 40.2501 32.6667C39.2427 34.0616 37.656 34.6072 35.4901 34.3035C35.4871 35.323 35.481 35.8951 35.4668 37.0496C35.4945 39.2777 37.2833 40.8775 40.8334 41.9496Z" fill="url(#paint0_linear_413_248)"/>
<g id="Path 48_2">
<path id="Path 48_3" d="M35.4668 34.3C30.3335 33.7167 27.0668 31.5 27.0668 31.5C27.0668 31.5 30.8001 36.1667 35.4668 37.1V34.3Z" fill="#FC9F6A"/>
</g>
</g>
<path id="Path 22" d="M18.7834 24.85C17.1757 20.9837 10.7334 13.1094 16.2867 8.20939C18.1534 -0.890607 28.4667 0.116693 35.35 2.21669C39.9763 3.62813 43.47 6.41669 44.2167 4.31669C48.8834 8.20939 46.5463 12.0167 43.47 13.1094C40.678 14.1011 35.9567 15.0927 27.9286 14.1594C26.4946 13.9926 26.7949 18.3846 26.0286 18.8594C24.879 19.5718 23.9867 15.0927 20.8348 16.4377C17.683 17.7826 19.5534 24.0187 22.9367 24.0187C24.1034 24.0187 24.6867 27.2263 21.5367 28.743C19.25 29.8667 19.828 27.3623 18.7834 24.85Z" fill="url(#paint1_linear_413_248)"/>
</g>
</g>
</g>
</g>
</g>
<g id="Group 23">
<path id="Combined Shape_2" d="M3.5 49.0719C1.27867 53.5885 0 64.0052 0 64.0052H56C56 64.0052 54.7209 53.5874 52.5 49.0719C50.2791 44.5564 37.31 40.3683 37.31 40.3683C30.1436 43.1667 25.7581 43.1667 18.6968 40.3667C18.6968 40.3667 5.72133 44.5553 3.5 49.0719Z" fill="url(#paint2_linear_413_248)"/>
<g id="Group 22">
<path id="Mask" d="M26.3667 42L25.2 63.4667H30.8L29.6334 42C29.6334 42 28.5444 40.8334 28 40.8334C27.4557 40.8334 26.3667 42 26.3667 42Z" fill="url(#paint3_linear_413_248)"/>
<path id="Combined Shape_3" d="M26.101 46.3615L29.7701 44.2414L29.6334 42C28.9074 41.2223 28.363 40.8334 28.0001 40.8334C27.6372 40.8334 27.0927 41.2223 26.3667 42L26.1007 46.3615H26.101Z" fill="#645050"/>
</g>
<path id="Combined Shape_4" d="M28 40.8315L30.3333 45.0334L37.5667 40.6L35.4667 37.5667L28 40.3249L20.5333 37.5667L18.4333 40.6L25.6666 45.0334L28 40.8315Z" fill="white"/>
</g>
</g>
<defs>
<linearGradient id="paint0_linear_413_248" x1="29.1384" y1="4.44434" x2="29.1384" y2="47.5496" gradientUnits="userSpaceOnUse">
<stop stop-color="#F7B186"/>
<stop offset="1" stop-color="#FFC299"/>
</linearGradient>
<linearGradient id="paint1_linear_413_248" x1="30.4639" y1="0.790527" x2="30.4639" y2="29.0193" gradientUnits="userSpaceOnUse">
<stop stop-color="#1D0024"/>
<stop offset="1" stop-color="#100014"/>
</linearGradient>
<linearGradient id="paint2_linear_413_248" x1="28" y1="40.3667" x2="28" y2="64.0052" gradientUnits="userSpaceOnUse">
<stop stop-color="#1D0024"/>
<stop offset="1" stop-color="#100014"/>
</linearGradient>
<linearGradient id="paint3_linear_413_248" x1="28" y1="40.8334" x2="28" y2="63.4667" gradientUnits="userSpaceOnUse">
<stop stop-color="#806A6A"/>
<stop offset="1" stop-color="#665654"/>
</linearGradient>
</defs>
</svg>
