<svg width="56" height="63" viewBox="0 0 56 63" fill="none" xmlns="http://www.w3.org/2000/svg">
<g id="User 07a">
<g id="Group 10">
<g id="Group 11">
<g id="Group 11_2">
<g id="Group 2">
<g id="Group 14">
<g id="Path 48">
<path id="Combined Shape" d="M35.4666 37.0496V37.1502C35.4943 39.2777 37.2832 40.8775 40.8333 41.9496C36.5556 45.0607 32.2777 47.5496 28 47.5496C23.7223 47.5496 19.4443 45.0607 15.1666 41.9496C18.6926 40.8763 20.4815 39.2741 20.5333 37.143C20.5333 36.7631 20.5305 36.2236 20.5279 35.2107C20.5279 35.0499 20.5275 34.8851 20.5268 34.7165C20.2717 34.7525 20.2934 34.7296 20.5268 34.6647C20.5198 32.0003 20.5083 28.4175 20.4925 24.7763C17.1483 20.4417 18.3768 15.3599 19.4247 15.4866C20.7092 15.6432 31.8399 5.08063 33.9749 4.53906C36.1099 3.9975 41.5333 5.74586 42.4666 10.6167C43.4 15.4875 43.7901 27.7651 40.25 32.6667C39.2426 34.0616 37.6559 34.6072 35.49 34.3035C35.4869 35.323 35.4809 35.8951 35.4666 37.0496Z" fill="url(#paint0_linear_413_900)"/>
<g id="Path 48_2">
<path id="Path 48_3" d="M35.4666 34.3C30.3333 33.7167 27.0666 31.5 27.0666 31.5C27.0666 31.5 30.5993 36.194 35.4666 37.1V34.3Z" fill="#FFBE94"/>
</g>
</g>
<g id="Path 22">
<path d="M18.7833 24.85C17.1756 20.9837 10.7333 13.1094 16.2866 8.20939C18.1533 -0.890607 28.4666 0.116693 35.35 2.21669C39.9763 3.62813 43.47 6.41669 44.2166 4.31669C48.8833 8.20939 46.5462 12.0167 43.47 13.1094C40.6779 14.1011 35.9566 15.0927 27.9286 14.1594C26.4945 13.9926 26.7948 18.3846 26.0285 18.8594C24.8789 19.5718 23.9866 15.0927 20.8348 16.4377C17.6829 17.7826 19.5533 24.0187 22.9366 24.0187C24.1033 24.0187 24.6866 27.2263 21.5366 28.743C19.25 29.8667 19.8279 27.3623 18.7833 24.85Z" fill="url(#paint1_linear_413_900)"/>
<path d="M18.7833 24.85C17.1756 20.9837 10.7333 13.1094 16.2866 8.20939C18.1533 -0.890607 28.4666 0.116693 35.35 2.21669C39.9763 3.62813 43.47 6.41669 44.2166 4.31669C48.8833 8.20939 46.5462 12.0167 43.47 13.1094C40.6779 14.1011 35.9566 15.0927 27.9286 14.1594C26.4945 13.9926 26.7948 18.3846 26.0285 18.8594C24.8789 19.5718 23.9866 15.0927 20.8348 16.4377C17.6829 17.7826 19.5533 24.0187 22.9366 24.0187C24.1033 24.0187 24.6866 27.2263 21.5366 28.743C19.25 29.8667 19.8279 27.3623 18.7833 24.85Z" fill="url(#paint2_linear_413_900)"/>
</g>
</g>
</g>
</g>
</g>
</g>
<g id="Group 21">
<path id="Combined Shape_2" d="M3.5 49.0719C1.27867 53.5885 0 64.0052 0 64.0052H56C56 64.0052 54.7209 53.5874 52.5 49.0719C50.2791 44.5564 37.31 40.3683 37.31 40.3683C34.8103 45.5 21.0915 45.5 18.6968 40.3667C18.6968 40.3667 5.72133 44.5553 3.5 49.0719Z" fill="url(#paint3_linear_413_900)"/>
<g id="Mask Group">
<mask id="mask0_413_900" style="mask-type:alpha" maskUnits="userSpaceOnUse" x="0" y="40" width="56" height="25">
<path id="Combined Shape_3" d="M3.5 49.0719C1.27867 53.5885 0 64.0052 0 64.0052H56C56 64.0052 54.7209 53.5874 52.5 49.0719C50.2791 44.5564 37.31 40.3683 37.31 40.3683C34.8103 45.5 21.0915 45.5 18.6968 40.3667C18.6968 40.3667 5.72133 44.5553 3.5 49.0719Z" fill="url(#paint4_linear_413_900)"/>
</mask>
<g mask="url(#mask0_413_900)">
<g id="Group 21_2">
<path id="Combined Shape_4" d="M58.3333 59.2668V57.4001H-2.33336V59.2668H58.3333ZM58.3333 54.6001V52.7334H-2.33336V54.6001H58.3333ZM58.3333 49.9334V48.0668H-2.33336V49.9334H58.3333Z" fill="url(#paint5_linear_413_900)"/>
</g>
</g>
</g>
</g>
</g>
<defs>
<linearGradient id="paint0_linear_413_900" x1="29.1382" y1="4.44434" x2="29.1382" y2="47.5496" gradientUnits="userSpaceOnUse">
<stop stop-color="#FFD4B3"/>
<stop offset="1" stop-color="#FFDCC2"/>
</linearGradient>
<linearGradient id="paint1_linear_413_900" x1="30.4639" y1="29.0193" x2="30.4639" y2="0.790527" gradientUnits="userSpaceOnUse">
<stop stop-color="#E6864E"/>
<stop offset="1" stop-color="#E67240"/>
</linearGradient>
<linearGradient id="paint2_linear_413_900" x1="30.4639" y1="0.790527" x2="30.4639" y2="29.0193" gradientUnits="userSpaceOnUse">
<stop stop-color="#C2C08E"/>
<stop offset="1" stop-color="#CCB872"/>
</linearGradient>
<linearGradient id="paint3_linear_413_900" x1="28" y1="64.0052" x2="28" y2="40.3667" gradientUnits="userSpaceOnUse">
<stop stop-color="#E6864E"/>
<stop offset="1" stop-color="#E67240"/>
</linearGradient>
<linearGradient id="paint4_linear_413_900" x1="28" y1="64.0052" x2="28" y2="40.3667" gradientUnits="userSpaceOnUse">
<stop stop-color="#E6864E"/>
<stop offset="1" stop-color="#E67240"/>
</linearGradient>
<linearGradient id="paint5_linear_413_900" x1="28" y1="48.0668" x2="28" y2="59.2668" gradientUnits="userSpaceOnUse">
<stop stop-color="#F7B186"/>
<stop offset="1" stop-color="#FFC299"/>
</linearGradient>
</defs>
</svg>
